<?xml version="1.0" encoding="UTF-8" standalone="no"?>
<!DOCTYPE svg PUBLIC "-//W3C//DTD SVG 1.1//EN"
 "http://www.w3.org/Graphics/SVG/1.1/DTD/svg11.dtd">
<!-- Generated by graphviz version 2.43.0 (0)
 -->
<!-- Title: ArchitectureDiagram Pages: 1 -->
<svg width="697pt" height="299pt"
 viewBox="0.00 0.00 696.50 299.00" xmlns="http://www.w3.org/2000/svg" xmlns:xlink="http://www.w3.org/1999/xlink">
<g id="graph0" class="graph" transform="scale(1 1) rotate(0) translate(4 295)">
<title>ArchitectureDiagram</title>
<polygon fill="white" stroke="transparent" points="-4,4 -4,-295 692.5,-295 692.5,4 -4,4"/>
<text text-anchor="middle" x="344.25" y="-7.8" font-family="Times,serif" font-size="14.00">ArchitectureDiagram</text>
<g id="clust1" class="cluster">
<title>clusterArchitecture</title>
<polygon fill="lightyellow" stroke="#eedd82" points="8,-87 8,-283 369,-283 369,-87 8,-87"/>
</g>
<!-- library.application -->
<g id="node1" class="node">
<title>library.application</title>
<polygon fill="#eedd82" stroke="black" points="300,-203 128,-203 128,-199 124,-199 124,-195 128,-195 128,-175 124,-175 124,-171 128,-171 128,-167 300,-167 300,-203"/>
<polyline fill="none" stroke="black" points="128,-199 132,-199 132,-195 128,-195 "/>
<polyline fill="none" stroke="black" points="128,-175 132,-175 132,-171 128,-171 "/>
<text text-anchor="middle" x="214" y="-180" font-family="Times,serif" font-size="20.00">ビジネスアクション</text>
</g>
<!-- library.domain -->
<g id="node2" class="node">
<title>library.domain</title>
<polygon fill="#eedd82" stroke="black" points="282.5,-131 145.5,-131 145.5,-127 141.5,-127 141.5,-123 145.5,-123 145.5,-103 141.5,-103 141.5,-99 145.5,-99 145.5,-95 282.5,-95 282.5,-131"/>
<polyline fill="none" stroke="black" points="145.5,-127 149.5,-127 149.5,-123 145.5,-123 "/>
<polyline fill="none" stroke="black" points="145.5,-103 149.5,-103 149.5,-99 145.5,-99 "/>
<text text-anchor="middle" x="214" y="-108" font-family="Times,serif" font-size="20.00">ビジネスルール</text>
</g>
<!-- library.application&#45;&gt;library.domain -->
<g id="edge9" class="edge">
<title>library.application&#45;&gt;library.domain</title>
<path fill="none" stroke="black" d="M214,-166.83C214,-166.83 214,-141.41 214,-141.41"/>
<polygon fill="black" stroke="black" points="217.5,-141.41 214,-131.41 210.5,-141.41 217.5,-141.41"/>
</g>
<!-- org.springframework -->
<g id="node5" class="node">
<title>org.springframework</title>
<polygon fill="lightgrey" stroke="black" points="452,-59 284,-59 284,-55 280,-55 280,-51 284,-51 284,-31 280,-31 280,-27 284,-27 284,-23 452,-23 452,-59"/>
<polyline fill="none" stroke="black" points="284,-55 288,-55 288,-51 284,-51 "/>
<polyline fill="none" stroke="black" points="284,-31 288,-31 288,-27 284,-27 "/>
<text text-anchor="middle" x="368" y="-37.3" font-family="Times,serif" font-size="14.00">org.springframework</text>
</g>
<!-- library.application&#45;&gt;org.springframework -->
<g id="edge4" class="edge">
<title>library.application&#45;&gt;org.springframework</title>
<path fill="none" stroke="black" d="M292,-166.76C292,-166.76 292,-69.09 292,-69.09"/>
<polygon fill="black" stroke="black" points="295.5,-69.09 292,-59.09 288.5,-69.09 295.5,-69.09"/>
</g>
<!-- library.domain&#45;&gt;org.springframework -->
<g id="edge1" class="edge">
<title>library.domain&#45;&gt;org.springframework</title>
<path fill="none" stroke="black" d="M274.25,-94.83C274.25,-73.5 274.25,-41 274.25,-41 274.25,-41 275.22,-41 275.22,-41"/>
<polygon fill="black" stroke="black" points="273.93,-44.5 283.93,-41 273.93,-37.5 273.93,-44.5"/>
</g>
<!-- jakarta.validation -->
<g id="node6" class="node">
<title>jakarta.validation</title>
<polygon fill="lightgrey" stroke="black" points="266,-59 124,-59 124,-55 120,-55 120,-51 124,-51 124,-31 120,-31 120,-27 124,-27 124,-23 266,-23 266,-59"/>
<polyline fill="none" stroke="black" points="124,-55 128,-55 128,-51 124,-51 "/>
<polyline fill="none" stroke="black" points="124,-31 128,-31 128,-27 124,-27 "/>
<text text-anchor="middle" x="195" y="-37.3" font-family="Times,serif" font-size="14.00">jakarta.validation</text>
</g>
<!-- library.domain&#45;&gt;jakarta.validation -->
<g id="edge2" class="edge">
<title>library.domain&#45;&gt;jakarta.validation</title>
<path fill="none" stroke="black" d="M205.75,-94.83C205.75,-94.83 205.75,-69.41 205.75,-69.41"/>
<polygon fill="black" stroke="black" points="209.25,-69.41 205.75,-59.41 202.25,-69.41 209.25,-69.41"/>
</g>
<!-- library.infrastructure -->
<g id="node3" class="node">
<title>library.infrastructure</title>
<polygon fill="#eedd82" stroke="black" points="360.5,-275 223.5,-275 223.5,-271 219.5,-271 219.5,-267 223.5,-267 223.5,-247 219.5,-247 219.5,-243 223.5,-243 223.5,-239 360.5,-239 360.5,-275"/>
<polyline fill="none" stroke="black" points="223.5,-271 227.5,-271 227.5,-267 223.5,-267 "/>
<polyline fill="none" stroke="black" points="223.5,-247 227.5,-247 227.5,-243 223.5,-243 "/>
<text text-anchor="middle" x="292" y="-252" font-family="Times,serif" font-size="20.00">データソース層</text>
</g>
<!-- library.infrastructure&#45;&gt;library.application -->
<g id="edge6" class="edge">
<title>library.infrastructure&#45;&gt;library.application</title>
<path fill="none" stroke="black" d="M261.75,-238.83C261.75,-238.83 261.75,-213.41 261.75,-213.41"/>
<polygon fill="black" stroke="black" points="265.25,-213.41 261.75,-203.41 258.25,-213.41 265.25,-213.41"/>
</g>
<!-- library.infrastructure&#45;&gt;library.domain -->
<g id="edge12" class="edge">
<title>library.infrastructure&#45;&gt;library.domain</title>
<path fill="none" stroke="black" d="M312.1,-238.76C312.1,-200.01 312.1,-113 312.1,-113 312.1,-113 292.67,-113 292.67,-113"/>
<polygon fill="black" stroke="black" points="292.67,-109.5 282.67,-113 292.67,-116.5 292.67,-109.5"/>
</g>
<!-- library.infrastructure&#45;&gt;org.springframework -->
<g id="edge8" class="edge">
<title>library.infrastructure&#45;&gt;org.springframework</title>
<path fill="none" stroke="black" d="M336.3,-238.96C336.3,-238.96 336.3,-69.15 336.3,-69.15"/>
<polygon fill="black" stroke="black" points="339.8,-69.15 336.3,-59.15 332.8,-69.15 339.8,-69.15"/>
</g>
<!-- org.slf4j -->
<g id="node8" class="node">
<title>org.slf4j</title>
<polygon fill="lightgrey" stroke="black" points="453,-203 377,-203 377,-199 373,-199 373,-195 377,-195 377,-175 373,-175 373,-171 377,-171 377,-167 453,-167 453,-203"/>
<polyline fill="none" stroke="black" points="377,-199 381,-199 381,-195 377,-195 "/>
<polyline fill="none" stroke="black" points="377,-175 381,-175 381,-171 377,-171 "/>
<text text-anchor="middle" x="415" y="-181.3" font-family="Times,serif" font-size="14.00">org.slf4j</text>
</g>
<!-- library.infrastructure&#45;&gt;org.slf4j -->
<g id="edge5" class="edge">
<title>library.infrastructure&#45;&gt;org.slf4j</title>
<path fill="none" stroke="black" d="M348.4,-238.83C348.4,-217.5 348.4,-185 348.4,-185 348.4,-185 366.64,-185 366.64,-185"/>
<polygon fill="black" stroke="black" points="366.64,-188.5 376.64,-185 366.64,-181.5 366.64,-188.5"/>
</g>
<!-- org.apache -->
<g id="node9" class="node">
<title>org.apache</title>
<polygon fill="lightgrey" stroke="black" points="566.5,-203 471.5,-203 471.5,-199 467.5,-199 467.5,-195 471.5,-195 471.5,-175 467.5,-175 467.5,-171 471.5,-171 471.5,-167 566.5,-167 566.5,-203"/>
<polyline fill="none" stroke="black" points="471.5,-199 475.5,-199 475.5,-195 471.5,-195 "/>
<polyline fill="none" stroke="black" points="471.5,-175 475.5,-175 475.5,-171 471.5,-171 "/>
<text text-anchor="middle" x="519" y="-181.3" font-family="Times,serif" font-size="14.00">org.apache</text>
</g>
<!-- library.infrastructure&#45;&gt;org.apache -->
<g id="edge11" class="edge">
<title>library.infrastructure&#45;&gt;org.apache</title>
<path fill="none" stroke="black" d="M360.72,-257C427.54,-257 519,-257 519,-257 519,-257 519,-213.17 519,-213.17"/>
<polygon fill="black" stroke="black" points="522.5,-213.17 519,-203.17 515.5,-213.17 522.5,-213.17"/>
</g>
<!-- library.presentation -->
<g id="node4" class="node">
<title>library.presentation</title>
<polygon fill="#eedd82" stroke="black" points="205.5,-275 16.5,-275 16.5,-271 12.5,-271 12.5,-267 16.5,-267 16.5,-247 12.5,-247 12.5,-243 16.5,-243 16.5,-239 205.5,-239 205.5,-275"/>
<polyline fill="none" stroke="black" points="16.5,-271 20.5,-271 20.5,-267 16.5,-267 "/>
<polyline fill="none" stroke="black" points="16.5,-247 20.5,-247 20.5,-243 16.5,-243 "/>
<text text-anchor="middle" x="111" y="-252" font-family="Times,serif" font-size="20.00">プレゼンテーション層</text>
</g>
<!-- library.presentation&#45;&gt;library.application -->
<g id="edge7" class="edge">
<title>library.presentation&#45;&gt;library.application</title>
<path fill="none" stroke="black" d="M153.83,-238.83C153.83,-238.83 153.83,-213.41 153.83,-213.41"/>
<polygon fill="black" stroke="black" points="157.33,-213.41 153.83,-203.41 150.33,-213.41 157.33,-213.41"/>
</g>
<!-- library.presentation&#45;&gt;library.domain -->
<g id="edge13" class="edge">
<title>library.presentation&#45;&gt;library.domain</title>
<path fill="none" stroke="black" d="M70.25,-238.76C70.25,-200.01 70.25,-113 70.25,-113 70.25,-113 135.49,-113 135.49,-113"/>
<polygon fill="black" stroke="black" points="135.49,-116.5 145.49,-113 135.49,-109.5 135.49,-116.5"/>
</g>
<!-- library.presentation&#45;&gt;org.springframework -->
<g id="edge10" class="edge">
<title>library.presentation&#45;&gt;org.springframework</title>
<path fill="none" stroke="black" d="M179.67,-238.58C179.67,-229.72 179.67,-221 179.67,-221 179.67,-221 324.2,-221 324.2,-221 324.2,-221 324.2,-69.25 324.2,-69.25"/>
<polygon fill="black" stroke="black" points="327.7,-69.25 324.2,-59.25 320.7,-69.25 327.7,-69.25"/>
</g>
<!-- library -->
<g id="node7" class="node">
<title>library</title>
<polygon fill="lightgrey" stroke="black" points="688.5,-131 623.5,-131 623.5,-127 619.5,-127 619.5,-123 623.5,-123 623.5,-103 619.5,-103 619.5,-99 623.5,-99 623.5,-95 688.5,-95 688.5,-131"/>
<polyline fill="none" stroke="black" points="623.5,-127 627.5,-127 627.5,-123 623.5,-123 "/>
<polyline fill="none" stroke="black" points="623.5,-103 627.5,-103 627.5,-99 623.5,-99 "/>
<text text-anchor="middle" x="656" y="-109.3" font-family="Times,serif" font-size="14.00">library</text>
</g>
<!-- library&#45;&gt;org.springframework -->
<g id="edge3" class="edge">
<title>library&#45;&gt;org.springframework</title>
<path fill="none" stroke="black" d="M656,-94.83C656,-73.5 656,-41 656,-41 656,-41 462.08,-41 462.08,-41"/>
<polygon fill="black" stroke="black" points="462.08,-37.5 452.08,-41 462.08,-44.5 462.08,-37.5"/>
</g>
</g>
</svg>
