<?xml version="1.0" encoding="UTF-8" standalone="no"?>
<!DOCTYPE svg PUBLIC "-//W3C//DTD SVG 1.1//EN"
 "http://www.w3.org/Graphics/SVG/1.1/DTD/svg11.dtd">
<!-- Generated by graphviz version 2.43.0 (0)
 -->
<!-- Title: CoreBusinessRuleRelationDiagram Pages: 1 -->
<svg width="2066pt" height="667pt"
 viewBox="0.00 0.00 2065.90 667.00" xmlns="http://www.w3.org/2000/svg" xmlns:xlink="http://www.w3.org/1999/xlink">
<g id="graph0" class="graph" transform="scale(1 1) rotate(0) translate(4 663)">
<title>CoreBusinessRuleRelationDiagram</title>
<polygon fill="white" stroke="transparent" points="-4,4 -4,-663 2061.9,-663 2061.9,4 -4,4"/>
<text text-anchor="middle" x="1028.95" y="-7.8" font-family="Times,serif" font-size="14.00">CoreBusinessRuleRelationDiagram</text>
<g id="clust1" class="cluster">
<title>cluster_library.domain.model.delay</title>
<polygon fill="lemonchiffon" stroke="#eedd82" stroke-width="2" points="198.9,-349 198.9,-426 318.9,-426 318.9,-349 198.9,-349"/>
<text text-anchor="middle" x="258.9" y="-410.8" font-family="Times,serif" font-size="14.00">delay</text>
</g>
<g id="clust2" class="cluster">
<title>cluster_library.domain.model.loan</title>
<polygon fill="lemonchiffon" stroke="#eedd82" stroke-width="2" points="872.9,-105 872.9,-341 1142.9,-341 1142.9,-105 872.9,-105"/>
<text text-anchor="middle" x="1007.9" y="-325.8" font-family="Times,serif" font-size="14.00">loan</text>
</g>
<g id="clust3" class="cluster">
<title>cluster_library.domain.model.loan.due</title>
<polygon fill="lemonchiffon" stroke="#eedd82" stroke-width="2" points="64.9,-179 64.9,-341 318.9,-341 318.9,-179 64.9,-179"/>
<text text-anchor="middle" x="191.9" y="-325.8" font-family="Times,serif" font-size="14.00">loan.due</text>
</g>
<g id="clust4" class="cluster">
<title>cluster_library.domain.model.loan.rule</title>
<polygon fill="lemonchiffon" stroke="#eedd82" stroke-width="2" points="326.9,-264 326.9,-651 864.9,-651 864.9,-264 326.9,-264"/>
<text text-anchor="middle" x="595.9" y="-635.8" font-family="Times,serif" font-size="14.00">loan.rule</text>
</g>
<g id="clust5" class="cluster">
<title>cluster_library.domain.model.material.entry</title>
<polygon fill="lemonchiffon" stroke="#eedd82" stroke-width="2" points="1150.9,-31 1150.9,-341 1282.9,-341 1282.9,-31 1150.9,-31"/>
<text text-anchor="middle" x="1216.9" y="-325.8" font-family="Times,serif" font-size="14.00">material.entry</text>
</g>
<g id="clust6" class="cluster">
<title>cluster_library.domain.model.material.item</title>
<polygon fill="lemonchiffon" stroke="#eedd82" stroke-width="2" points="460.9,-31 460.9,-256 608.9,-256 608.9,-31 460.9,-31"/>
<text text-anchor="middle" x="534.9" y="-240.8" font-family="Times,serif" font-size="14.00">material.item</text>
</g>
<g id="clust7" class="cluster">
<title>cluster_library.domain.model.member</title>
<polygon fill="lemonchiffon" stroke="#eedd82" stroke-width="2" points="1802.9,-105 1802.9,-426 2049.9,-426 2049.9,-105 1802.9,-105"/>
<text text-anchor="middle" x="1926.4" y="-410.8" font-family="Times,serif" font-size="14.00">member</text>
</g>
<g id="clust8" class="cluster">
<title>cluster_library.domain.model.reservation</title>
<polygon fill="lemonchiffon" stroke="#eedd82" stroke-width="2" points="1360.9,-105 1360.9,-341 1538.9,-341 1538.9,-105 1360.9,-105"/>
<text text-anchor="middle" x="1449.9" y="-325.8" font-family="Times,serif" font-size="14.00">reservation</text>
</g>
<g id="clust9" class="cluster">
<title>cluster_library.domain.model.reservation.wait</title>
<polygon fill="lemonchiffon" stroke="#eedd82" stroke-width="2" points="1546.9,-264 1546.9,-341 1794.9,-341 1794.9,-264 1546.9,-264"/>
<text text-anchor="middle" x="1670.9" y="-325.8" font-family="Times,serif" font-size="14.00">reservation.wait</text>
</g>
<g id="clust10" class="cluster">
<title>cluster_library.domain.model.retention</title>
<polygon fill="lemonchiffon" stroke="#eedd82" stroke-width="2" points="356.9,-179 356.9,-256 452.9,-256 452.9,-179 356.9,-179"/>
<text text-anchor="middle" x="404.9" y="-240.8" font-family="Times,serif" font-size="14.00">retention</text>
</g>
<!-- library.domain.model.delay.DelayStatus -->
<g id="node1" class="node">
<title>library.domain.model.delay.DelayStatus</title>
<g id="a_node1"><a xlink:href="./domain.html#library.domain.model.delay.DelayStatus" xlink:title="遅延状態\nDelayStatus">
<polygon fill="#eedd82" stroke="black" points="310.9,-395 206.9,-395 206.9,-357 310.9,-357 310.9,-395"/>
<text text-anchor="middle" x="258.9" y="-379.8" font-family="Times,serif" font-size="14.00">遅延状態</text>
<text text-anchor="middle" x="258.9" y="-364.8" font-family="Times,serif" font-size="14.00">DelayStatus</text>
</a>
</g>
</g>
<!-- library.domain.model.loan.Loan -->
<g id="node2" class="node">
<title>library.domain.model.loan.Loan</title>
<g id="a_node2"><a xlink:href="./domain.html#library.domain.model.loan.Loan" xlink:title="*貸出\nLoan">
<polygon fill="greenyellow" stroke="black" points="1028.9,-225 974.9,-225 974.9,-187 1028.9,-187 1028.9,-225"/>
<text text-anchor="middle" x="1001.9" y="-209.8" font-family="Times,serif" font-size="14.00">*貸出</text>
<text text-anchor="middle" x="1001.9" y="-194.8" font-family="Times,serif" font-size="14.00">Loan</text>
</a>
</g>
</g>
<!-- library.domain.model.loan.LoanDate -->
<g id="node3" class="node">
<title>library.domain.model.loan.LoanDate</title>
<g id="a_node3"><a xlink:href="./domain.html#library.domain.model.loan.LoanDate" xlink:title="貸出日\nLoanDate">
<polygon fill="#eedd82" stroke="black" points="986.4,-151 901.4,-151 901.4,-113 986.4,-113 986.4,-151"/>
<text text-anchor="middle" x="943.9" y="-135.8" font-family="Times,serif" font-size="14.00">貸出日</text>
<text text-anchor="middle" x="943.9" y="-120.8" font-family="Times,serif" font-size="14.00">LoanDate</text>
</a>
</g>
</g>
<!-- library.domain.model.loan.Loan&#45;&gt;library.domain.model.loan.LoanDate -->
<g id="edge1" class="edge">
<title>library.domain.model.loan.Loan&#45;&gt;library.domain.model.loan.LoanDate</title>
<path fill="none" stroke="black" d="M987.26,-186.83C980.58,-178.54 972.54,-168.56 965.21,-159.45"/>
<polygon fill="black" stroke="black" points="967.73,-157.01 958.73,-151.41 962.28,-161.4 967.73,-157.01"/>
</g>
<!-- library.domain.model.loan.LoanNumber -->
<g id="node4" class="node">
<title>library.domain.model.loan.LoanNumber</title>
<g id="a_node4"><a xlink:href="./domain.html#library.domain.model.loan.LoanNumber" xlink:title="貸出番号\nLoanNumber">
<polygon fill="#eedd82" stroke="black" points="1114.9,-151 1004.9,-151 1004.9,-113 1114.9,-113 1114.9,-151"/>
<text text-anchor="middle" x="1059.9" y="-135.8" font-family="Times,serif" font-size="14.00">貸出番号</text>
<text text-anchor="middle" x="1059.9" y="-120.8" font-family="Times,serif" font-size="14.00">LoanNumber</text>
</a>
</g>
</g>
<!-- library.domain.model.loan.Loan&#45;&gt;library.domain.model.loan.LoanNumber -->
<g id="edge2" class="edge">
<title>library.domain.model.loan.Loan&#45;&gt;library.domain.model.loan.LoanNumber</title>
<path fill="none" stroke="black" d="M1016.54,-186.83C1023.22,-178.54 1031.26,-168.56 1038.59,-159.45"/>
<polygon fill="black" stroke="black" points="1041.52,-161.4 1045.07,-151.41 1036.07,-157.01 1041.52,-161.4"/>
</g>
<!-- library.domain.model.material.item.Item -->
<g id="node20" class="node">
<title>library.domain.model.material.item.Item</title>
<g id="a_node20"><a xlink:href="./domain.html#library.domain.model.material.item.Item" xlink:title="*所蔵品\nItem">
<polygon fill="greenyellow" stroke="black" points="561.9,-151 495.9,-151 495.9,-113 561.9,-113 561.9,-151"/>
<text text-anchor="middle" x="528.9" y="-135.8" font-family="Times,serif" font-size="14.00">*所蔵品</text>
<text text-anchor="middle" x="528.9" y="-120.8" font-family="Times,serif" font-size="14.00">Item</text>
</a>
</g>
</g>
<!-- library.domain.model.loan.Loan&#45;&gt;library.domain.model.material.item.Item -->
<g id="edge3" class="edge">
<title>library.domain.model.loan.Loan&#45;&gt;library.domain.model.material.item.Item</title>
<path fill="none" stroke="black" d="M974.77,-200.87C896.17,-188.91 667.81,-154.15 572.01,-139.56"/>
<polygon fill="black" stroke="black" points="572.49,-136.09 562.08,-138.05 571.43,-143.01 572.49,-136.09"/>
</g>
<!-- library.domain.model.member.Member -->
<g id="node23" class="node">
<title>library.domain.model.member.Member</title>
<g id="a_node23"><a xlink:href="./domain.html#library.domain.model.member.Member" xlink:title="会員\nMember">
<polygon fill="#eedd82" stroke="black" points="2041.4,-151 1964.4,-151 1964.4,-113 2041.4,-113 2041.4,-151"/>
<text text-anchor="middle" x="2002.9" y="-135.8" font-family="Times,serif" font-size="14.00">会員</text>
<text text-anchor="middle" x="2002.9" y="-120.8" font-family="Times,serif" font-size="14.00">Member</text>
</a>
</g>
</g>
<!-- library.domain.model.loan.Loan&#45;&gt;library.domain.model.member.Member -->
<g id="edge4" class="edge">
<title>library.domain.model.loan.Loan&#45;&gt;library.domain.model.member.Member</title>
<path fill="none" stroke="black" d="M1029.05,-202.77C1088.46,-197.93 1234.45,-186.34 1356.9,-179 1486.8,-171.21 1809.85,-177.95 1954.13,-150.92"/>
<polygon fill="black" stroke="black" points="1955.08,-154.3 1964.21,-148.91 1953.72,-147.43 1955.08,-154.3"/>
</g>
<!-- library.domain.model.member.MemberNumber -->
<g id="node24" class="node">
<title>library.domain.model.member.MemberNumber</title>
<g id="a_node24"><a xlink:href="./domain.html#library.domain.model.member.MemberNumber" xlink:title="会員番号\nMemberNumber">
<polygon fill="#eedd82" stroke="black" points="1946.4,-151 1811.4,-151 1811.4,-113 1946.4,-113 1946.4,-151"/>
<text text-anchor="middle" x="1878.9" y="-135.8" font-family="Times,serif" font-size="14.00">会員番号</text>
<text text-anchor="middle" x="1878.9" y="-120.8" font-family="Times,serif" font-size="14.00">MemberNumber</text>
</a>
</g>
</g>
<!-- library.domain.model.loan.Loan&#45;&gt;library.domain.model.member.MemberNumber -->
<g id="edge5" class="edge">
<title>library.domain.model.loan.Loan&#45;&gt;library.domain.model.member.MemberNumber</title>
<path fill="none" stroke="black" d="M1029.11,-202.77C1146.78,-193.11 1614.38,-154.72 1801.2,-139.38"/>
<polygon fill="black" stroke="black" points="1801.55,-142.86 1811.23,-138.56 1800.97,-135.89 1801.55,-142.86"/>
</g>
<!-- library.domain.model.loan.Loans -->
<g id="node5" class="node">
<title>library.domain.model.loan.Loans</title>
<g id="a_node5"><a xlink:href="./domain.html#library.domain.model.loan.Loans" xlink:title="貸出のリスト\nLoans">
<polygon fill="#eedd82" stroke="black" points="1134.9,-310 1032.9,-310 1032.9,-272 1134.9,-272 1134.9,-310"/>
<text text-anchor="middle" x="1083.9" y="-294.8" font-family="Times,serif" font-size="14.00">貸出のリスト</text>
<text text-anchor="middle" x="1083.9" y="-279.8" font-family="Times,serif" font-size="14.00">Loans</text>
</a>
</g>
</g>
<!-- library.domain.model.loan.Loans&#45;&gt;library.domain.model.loan.Loan -->
<g id="edge6" class="edge">
<title>library.domain.model.loan.Loans&#45;&gt;library.domain.model.loan.Loan</title>
<path fill="none" stroke="black" d="M1066.11,-271.99C1054.69,-260.43 1039.69,-245.25 1027.06,-232.47"/>
<polygon fill="black" stroke="black" points="1029.46,-229.92 1019.94,-225.26 1024.48,-234.83 1029.46,-229.92"/>
</g>
<!-- library.domain.model.loan.Loans&#45;&gt;library.domain.model.material.item.Item -->
<g id="edge7" class="edge">
<title>library.domain.model.loan.Loans&#45;&gt;library.domain.model.material.item.Item</title>
<path fill="none" stroke="black" d="M1048.5,-271.92C1040.6,-268.67 1032.12,-265.75 1023.9,-264 1005.67,-260.11 366,-269.26 352.9,-256 328.85,-231.66 331.98,-206.09 352.9,-179 369.01,-158.14 438.9,-144.93 485.62,-138.26"/>
<polygon fill="black" stroke="black" points="486.36,-141.69 495.79,-136.86 485.4,-134.76 486.36,-141.69"/>
</g>
<!-- library.domain.model.loan.NumberOfLoans -->
<g id="node6" class="node">
<title>library.domain.model.loan.NumberOfLoans</title>
<g id="a_node6"><a xlink:href="./domain.html#library.domain.model.loan.NumberOfLoans" xlink:title="貸出点数\nNumberOfLoans">
<polygon fill="#eedd82" stroke="black" points="1014.9,-310 880.9,-310 880.9,-272 1014.9,-272 1014.9,-310"/>
<text text-anchor="middle" x="947.9" y="-294.8" font-family="Times,serif" font-size="14.00">貸出点数</text>
<text text-anchor="middle" x="947.9" y="-279.8" font-family="Times,serif" font-size="14.00">NumberOfLoans</text>
</a>
</g>
</g>
<!-- library.domain.model.loan.due.DueDate -->
<g id="node7" class="node">
<title>library.domain.model.loan.due.DueDate</title>
<g id="a_node7"><a xlink:href="./domain.html#library.domain.model.loan.due.DueDate" xlink:title="貸出期限日\nDueDate">
<polygon fill="#eedd82" stroke="black" points="160.9,-310 72.9,-310 72.9,-272 160.9,-272 160.9,-310"/>
<text text-anchor="middle" x="116.9" y="-294.8" font-family="Times,serif" font-size="14.00">貸出期限日</text>
<text text-anchor="middle" x="116.9" y="-279.8" font-family="Times,serif" font-size="14.00">DueDate</text>
</a>
</g>
</g>
<!-- library.domain.model.loan.due.DueDate&#45;&gt;library.domain.model.loan.Loan -->
<g id="edge32" class="edge">
<title>library.domain.model.loan.due.DueDate&#45;&gt;library.domain.model.loan.Loan</title>
<path fill="none" stroke="black" d="M148.61,-271.96C155.74,-268.7 163.41,-265.78 170.9,-264 218.69,-252.64 563.91,-259.52 612.9,-256 742.7,-246.68 895.59,-223.95 964.68,-213.04"/>
<polygon fill="black" stroke="black" points="965.32,-216.48 974.65,-211.46 964.22,-209.57 965.32,-216.48"/>
</g>
<!-- library.domain.model.loan.due.DueDateStatus -->
<g id="node8" class="node">
<title>library.domain.model.loan.due.DueDateStatus</title>
<g id="a_node8"><a xlink:href="./domain.html#library.domain.model.loan.due.DueDateStatus" xlink:title="*貸出期限状態\nDueDateStatus">
<polygon fill="greenyellow" stroke="black" points="198.4,-225 73.4,-225 73.4,-187 198.4,-187 198.4,-225"/>
<text text-anchor="middle" x="135.9" y="-209.8" font-family="Times,serif" font-size="14.00">*貸出期限状態</text>
<text text-anchor="middle" x="135.9" y="-194.8" font-family="Times,serif" font-size="14.00">DueDateStatus</text>
</a>
</g>
</g>
<!-- library.domain.model.loan.due.DueDate&#45;&gt;library.domain.model.loan.due.DueDateStatus -->
<g id="edge33" class="edge">
<title>library.domain.model.loan.due.DueDate&#45;&gt;library.domain.model.loan.due.DueDateStatus</title>
<path fill="none" stroke="black" d="M121.02,-271.99C123.47,-261.3 126.63,-247.5 129.41,-235.37"/>
<polygon fill="black" stroke="black" points="132.9,-235.79 131.72,-225.26 126.08,-234.23 132.9,-235.79"/>
</g>
<!-- library.domain.model.loan.due.Dues -->
<g id="node9" class="node">
<title>library.domain.model.loan.due.Dues</title>
<g id="a_node9"><a xlink:href="./domain.html#library.domain.model.loan.due.Dues" xlink:title="貸出期限のリスト\nDues">
<polygon fill="#eedd82" stroke="black" points="310.4,-310 179.4,-310 179.4,-272 310.4,-272 310.4,-310"/>
<text text-anchor="middle" x="244.9" y="-294.8" font-family="Times,serif" font-size="14.00">貸出期限のリスト</text>
<text text-anchor="middle" x="244.9" y="-279.8" font-family="Times,serif" font-size="14.00">Dues</text>
</a>
</g>
</g>
<!-- library.domain.model.loan.due.Dues&#45;&gt;library.domain.model.loan.Loan -->
<g id="edge31" class="edge">
<title>library.domain.model.loan.due.Dues&#45;&gt;library.domain.model.loan.Loan</title>
<path fill="none" stroke="black" d="M291.76,-271.91C301.89,-268.7 312.64,-265.81 322.9,-264 386.39,-252.8 548.62,-260.92 612.9,-256 742.66,-246.06 895.56,-223.64 964.67,-212.92"/>
<polygon fill="black" stroke="black" points="965.3,-216.37 974.64,-211.37 964.22,-209.45 965.3,-216.37"/>
</g>
<!-- library.domain.model.loan.rule.LoanStatus -->
<g id="node10" class="node">
<title>library.domain.model.loan.rule.LoanStatus</title>
<g id="a_node10"><a xlink:href="./domain.html#library.domain.model.loan.rule.LoanStatus" xlink:title="貸出状況\nLoanStatus">
<polygon fill="#eedd82" stroke="black" points="502.9,-620 404.9,-620 404.9,-582 502.9,-582 502.9,-620"/>
<text text-anchor="middle" x="453.9" y="-604.8" font-family="Times,serif" font-size="14.00">貸出状況</text>
<text text-anchor="middle" x="453.9" y="-589.8" font-family="Times,serif" font-size="14.00">LoanStatus</text>
</a>
</g>
</g>
<!-- library.domain.model.loan.rule.Restriction -->
<g id="node12" class="node">
<title>library.domain.model.loan.rule.Restriction</title>
<g id="a_node12"><a xlink:href="./domain.html#library.domain.model.loan.rule.Restriction" xlink:title="*貸出制限\nRestriction">
<polygon fill="greenyellow" stroke="black" points="659.4,-546 564.4,-546 564.4,-508 659.4,-508 659.4,-546"/>
<text text-anchor="middle" x="611.9" y="-530.8" font-family="Times,serif" font-size="14.00">*貸出制限</text>
<text text-anchor="middle" x="611.9" y="-515.8" font-family="Times,serif" font-size="14.00">Restriction</text>
</a>
</g>
</g>
<!-- library.domain.model.loan.rule.LoanStatus&#45;&gt;library.domain.model.loan.rule.Restriction -->
<g id="edge8" class="edge">
<title>library.domain.model.loan.rule.LoanStatus&#45;&gt;library.domain.model.loan.rule.Restriction</title>
<path fill="none" stroke="black" d="M493.77,-581.83C514.81,-572.24 540.8,-560.4 563.04,-550.27"/>
<polygon fill="black" stroke="black" points="564.67,-553.37 572.32,-546.04 561.77,-547 564.67,-553.37"/>
</g>
<!-- library.domain.model.loan.rule.RestrictionOfDelayMap -->
<g id="node14" class="node">
<title>library.domain.model.loan.rule.RestrictionOfDelayMap</title>
<g id="a_node14"><a xlink:href="./domain.html#library.domain.model.loan.rule.RestrictionOfDelayMap" xlink:title="*遅延状態による貸出制限の表条件\nRestrictionOfDelayMap">
<polygon fill="greenyellow" stroke="black" points="572.4,-472 335.4,-472 335.4,-434 572.4,-434 572.4,-472"/>
<text text-anchor="middle" x="453.9" y="-456.8" font-family="Times,serif" font-size="14.00">*遅延状態による貸出制限の表条件</text>
<text text-anchor="middle" x="453.9" y="-441.8" font-family="Times,serif" font-size="14.00">RestrictionOfDelayMap</text>
</a>
</g>
</g>
<!-- library.domain.model.loan.rule.LoanStatus&#45;&gt;library.domain.model.loan.rule.RestrictionOfDelayMap -->
<g id="edge9" class="edge">
<title>library.domain.model.loan.rule.LoanStatus&#45;&gt;library.domain.model.loan.rule.RestrictionOfDelayMap</title>
<path fill="none" stroke="black" d="M453.9,-581.8C453.9,-556.89 453.9,-511.89 453.9,-482.49"/>
<polygon fill="black" stroke="black" points="457.4,-482.43 453.9,-472.43 450.4,-482.43 457.4,-482.43"/>
</g>
<!-- library.domain.model.loan.rule.LoanStatus&#45;&gt;library.domain.model.material.item.Item -->
<g id="edge10" class="edge">
<title>library.domain.model.loan.rule.LoanStatus&#45;&gt;library.domain.model.material.item.Item</title>
<path fill="none" stroke="black" d="M404.79,-594.53C288.67,-580.22 6.9,-536.97 6.9,-454 6.9,-454 6.9,-454 6.9,-290 6.9,-240.28 -14.87,-213.54 20.9,-179 54.03,-147.02 368.7,-136.64 485.52,-133.87"/>
<polygon fill="black" stroke="black" points="485.96,-137.36 495.87,-133.63 485.79,-130.36 485.96,-137.36"/>
</g>
<!-- library.domain.model.loan.rule.Loanability -->
<g id="node11" class="node">
<title>library.domain.model.loan.rule.Loanability</title>
<g id="a_node11"><a xlink:href="./domain.html#library.domain.model.loan.rule.Loanability" xlink:title="貸出可否\nLoanability">
<polygon fill="#eedd82" stroke="black" points="730.9,-310 634.9,-310 634.9,-272 730.9,-272 730.9,-310"/>
<text text-anchor="middle" x="682.9" y="-294.8" font-family="Times,serif" font-size="14.00">貸出可否</text>
<text text-anchor="middle" x="682.9" y="-279.8" font-family="Times,serif" font-size="14.00">Loanability</text>
</a>
</g>
</g>
<!-- library.domain.model.loan.rule.Restriction&#45;&gt;library.domain.model.delay.DelayStatus -->
<g id="edge17" class="edge">
<title>library.domain.model.loan.rule.Restriction&#45;&gt;library.domain.model.delay.DelayStatus</title>
<path fill="none" stroke="black" d="M564.2,-521.29C493.63,-513.6 365.58,-496.7 326.9,-472 301.44,-455.74 282.58,-426.24 271.27,-404.41"/>
<polygon fill="black" stroke="black" points="274.33,-402.69 266.74,-395.29 268.06,-405.8 274.33,-402.69"/>
</g>
<!-- library.domain.model.loan.rule.Restriction&#45;&gt;library.domain.model.loan.Loans -->
<g id="edge18" class="edge">
<title>library.domain.model.loan.rule.Restriction&#45;&gt;library.domain.model.loan.Loans</title>
<path fill="none" stroke="black" d="M659.5,-522.69C712.24,-517.51 798.71,-504.44 865.9,-472 947.12,-432.78 1024.06,-357.13 1061.02,-317.55"/>
<polygon fill="black" stroke="black" points="1063.65,-319.86 1067.86,-310.13 1058.51,-315.11 1063.65,-319.86"/>
</g>
<!-- library.domain.model.loan.rule.Restriction&#45;&gt;library.domain.model.loan.rule.Loanability -->
<g id="edge19" class="edge">
<title>library.domain.model.loan.rule.Restriction&#45;&gt;library.domain.model.loan.rule.Loanability</title>
<path fill="none" stroke="black" d="M611.16,-507.72C610.85,-488.93 611.59,-458.99 617.9,-434 628.57,-391.72 651.49,-346.52 667.05,-318.76"/>
<polygon fill="black" stroke="black" points="670.11,-320.46 672.02,-310.04 664.03,-317 670.11,-320.46"/>
</g>
<!-- library.domain.model.loan.rule.RestrictionOfDelay -->
<g id="node13" class="node">
<title>library.domain.model.loan.rule.RestrictionOfDelay</title>
<g id="a_node13"><a xlink:href="./domain.html#library.domain.model.loan.rule.RestrictionOfDelay" xlink:title="*遅延状態による制限(判定結果)\nRestrictionOfDelay">
<polygon fill="greenyellow" stroke="black" points="577.4,-395 358.4,-395 358.4,-357 577.4,-357 577.4,-395"/>
<text text-anchor="middle" x="467.9" y="-379.8" font-family="Times,serif" font-size="14.00">*遅延状態による制限(判定結果)</text>
<text text-anchor="middle" x="467.9" y="-364.8" font-family="Times,serif" font-size="14.00">RestrictionOfDelay</text>
</a>
</g>
</g>
<!-- library.domain.model.loan.rule.Restriction&#45;&gt;library.domain.model.loan.rule.RestrictionOfDelay -->
<g id="edge20" class="edge">
<title>library.domain.model.loan.rule.Restriction&#45;&gt;library.domain.model.loan.rule.RestrictionOfDelay</title>
<path fill="none" stroke="black" d="M610.13,-507.72C607.31,-487.54 600.1,-455.13 581.9,-434 569.17,-419.22 551.69,-407.87 534.25,-399.33"/>
<polygon fill="black" stroke="black" points="535.7,-396.14 525.15,-395.11 532.75,-402.49 535.7,-396.14"/>
</g>
<!-- library.domain.model.loan.rule.Restriction&#45;&gt;library.domain.model.loan.rule.RestrictionOfDelayMap -->
<g id="edge21" class="edge">
<title>library.domain.model.loan.rule.Restriction&#45;&gt;library.domain.model.loan.rule.RestrictionOfDelayMap</title>
<path fill="none" stroke="black" d="M572.03,-507.83C550.99,-498.24 525,-486.4 502.76,-476.27"/>
<polygon fill="black" stroke="black" points="504.04,-473 493.48,-472.04 501.13,-479.37 504.04,-473"/>
</g>
<!-- library.domain.model.loan.rule.RestrictionOfQuantity -->
<g id="node15" class="node">
<title>library.domain.model.loan.rule.RestrictionOfQuantity</title>
<g id="a_node15"><a xlink:href="./domain.html#library.domain.model.loan.rule.RestrictionOfQuantity" xlink:title="*貸出点数の制限\nRestrictionOfQuantity">
<polygon fill="greenyellow" stroke="black" points="848.9,-395 674.9,-395 674.9,-357 848.9,-357 848.9,-395"/>
<text text-anchor="middle" x="761.9" y="-379.8" font-family="Times,serif" font-size="14.00">*貸出点数の制限</text>
<text text-anchor="middle" x="761.9" y="-364.8" font-family="Times,serif" font-size="14.00">RestrictionOfQuantity</text>
</a>
</g>
</g>
<!-- library.domain.model.loan.rule.Restriction&#45;&gt;library.domain.model.loan.rule.RestrictionOfQuantity -->
<g id="edge22" class="edge">
<title>library.domain.model.loan.rule.Restriction&#45;&gt;library.domain.model.loan.rule.RestrictionOfQuantity</title>
<path fill="none" stroke="black" d="M613.59,-507.65C616.34,-487.41 623.48,-454.94 641.9,-434 655.06,-419.03 673.02,-407.67 691.03,-399.19"/>
<polygon fill="black" stroke="black" points="692.71,-402.27 700.43,-395.01 689.87,-395.88 692.71,-402.27"/>
</g>
<!-- library.domain.model.loan.rule.RestrictionOfQuantityMap -->
<g id="node16" class="node">
<title>library.domain.model.loan.rule.RestrictionOfQuantityMap</title>
<g id="a_node16"><a xlink:href="./domain.html#library.domain.model.loan.rule.RestrictionOfQuantityMap" xlink:title="*貸出冊数制限の表条件\nRestrictionOfQuantityMap">
<polygon fill="greenyellow" stroke="black" points="856.9,-472 650.9,-472 650.9,-434 856.9,-434 856.9,-472"/>
<text text-anchor="middle" x="753.9" y="-456.8" font-family="Times,serif" font-size="14.00">*貸出冊数制限の表条件</text>
<text text-anchor="middle" x="753.9" y="-441.8" font-family="Times,serif" font-size="14.00">RestrictionOfQuantityMap</text>
</a>
</g>
</g>
<!-- library.domain.model.loan.rule.Restriction&#45;&gt;library.domain.model.loan.rule.RestrictionOfQuantityMap -->
<g id="edge23" class="edge">
<title>library.domain.model.loan.rule.Restriction&#45;&gt;library.domain.model.loan.rule.RestrictionOfQuantityMap</title>
<path fill="none" stroke="black" d="M647.73,-507.83C666.32,-498.41 689.2,-486.81 708.96,-476.79"/>
<polygon fill="black" stroke="black" points="710.74,-479.81 718.08,-472.16 707.58,-473.56 710.74,-479.81"/>
</g>
<!-- library.domain.model.loan.rule.Restriction&#45;&gt;library.domain.model.material.item.Item -->
<g id="edge24" class="edge">
<title>library.domain.model.loan.rule.Restriction&#45;&gt;library.domain.model.material.item.Item</title>
<path fill="none" stroke="black" d="M564.08,-522.67C462.94,-514.44 233.47,-489.03 194.9,-426 177.04,-396.81 171.47,-373.94 194.9,-349 204.66,-338.61 308.87,-343.48 322.9,-341 453.9,-317.81 530.3,-362.59 609.9,-256 630.38,-228.58 627.12,-208.58 609.9,-179 601.34,-164.3 586.15,-153.92 571.21,-146.78"/>
<polygon fill="black" stroke="black" points="572.57,-143.55 562,-142.75 569.76,-149.97 572.57,-143.55"/>
</g>
<!-- library.domain.model.loan.rule.Restriction&#45;&gt;library.domain.model.member.Member -->
<g id="edge25" class="edge">
<title>library.domain.model.loan.rule.Restriction&#45;&gt;library.domain.model.member.Member</title>
<path fill="none" stroke="black" d="M659.76,-524.45C882.82,-516.94 1814.62,-482.43 1930.9,-426 1957.5,-413.09 1975.9,-406.57 1975.9,-377 1975.9,-377 1975.9,-377 1975.9,-290 1975.9,-244.28 1987.16,-192.14 1995.14,-160.93"/>
<polygon fill="black" stroke="black" points="1998.54,-161.76 1997.69,-151.19 1991.77,-159.98 1998.54,-161.76"/>
</g>
<!-- library.domain.model.member.MemberType -->
<g id="node25" class="node">
<title>library.domain.model.member.MemberType</title>
<g id="a_node25"><a xlink:href="./domain.html#library.domain.model.member.MemberType" xlink:title="会員種別\nMemberType">
<polygon fill="#eedd82" stroke="black" points="1921.4,-395 1810.4,-395 1810.4,-357 1921.4,-357 1921.4,-395"/>
<text text-anchor="middle" x="1865.9" y="-379.8" font-family="Times,serif" font-size="14.00">会員種別</text>
<text text-anchor="middle" x="1865.9" y="-364.8" font-family="Times,serif" font-size="14.00">MemberType</text>
</a>
</g>
</g>
<!-- library.domain.model.loan.rule.Restriction&#45;&gt;library.domain.model.member.MemberType -->
<g id="edge26" class="edge">
<title>library.domain.model.loan.rule.Restriction&#45;&gt;library.domain.model.member.MemberType</title>
<path fill="none" stroke="black" d="M659.53,-520.34C852.53,-497.41 1576.75,-411.36 1799.98,-384.83"/>
<polygon fill="black" stroke="black" points="1800.71,-388.27 1810.22,-383.62 1799.88,-381.32 1800.71,-388.27"/>
</g>
<!-- library.domain.model.loan.rule.RestrictionOfDelayMap&#45;&gt;library.domain.model.delay.DelayStatus -->
<g id="edge27" class="edge">
<title>library.domain.model.loan.rule.RestrictionOfDelayMap&#45;&gt;library.domain.model.delay.DelayStatus</title>
<path fill="none" stroke="black" d="M343.38,-433.91C336.33,-431.59 329.45,-428.96 322.9,-426 309.59,-419.98 296.49,-410.72 285.65,-401.87"/>
<polygon fill="black" stroke="black" points="287.72,-399.04 277.83,-395.24 283.19,-404.37 287.72,-399.04"/>
</g>
<!-- library.domain.model.loan.rule.RestrictionOfDelayMap&#45;&gt;library.domain.model.loan.rule.RestrictionOfDelay -->
<g id="edge28" class="edge">
<title>library.domain.model.loan.rule.RestrictionOfDelayMap&#45;&gt;library.domain.model.loan.rule.RestrictionOfDelay</title>
<path fill="none" stroke="black" d="M457.29,-433.84C458.89,-425.25 460.85,-414.79 462.64,-405.19"/>
<polygon fill="black" stroke="black" points="466.1,-405.72 464.49,-395.25 459.22,-404.44 466.1,-405.72"/>
</g>
<!-- library.domain.model.loan.rule.RestrictionOfQuantity&#45;&gt;library.domain.model.loan.Loans -->
<g id="edge11" class="edge">
<title>library.domain.model.loan.rule.RestrictionOfQuantity&#45;&gt;library.domain.model.loan.Loans</title>
<path fill="none" stroke="black" d="M849.08,-364.25C923.71,-354.97 1019.8,-342.77 1023.9,-341 1036.86,-335.41 1049.28,-326.17 1059.42,-317.21"/>
<polygon fill="black" stroke="black" points="1062.08,-319.53 1067.03,-310.16 1057.32,-314.39 1062.08,-319.53"/>
</g>
<!-- library.domain.model.loan.rule.RestrictionOfQuantity&#45;&gt;library.domain.model.loan.NumberOfLoans -->
<g id="edge12" class="edge">
<title>library.domain.model.loan.rule.RestrictionOfQuantity&#45;&gt;library.domain.model.loan.NumberOfLoans</title>
<path fill="none" stroke="black" d="M827.66,-356.93C841.53,-352.34 855.89,-346.99 868.9,-341 884.29,-333.91 900.35,-324.4 913.94,-315.64"/>
<polygon fill="black" stroke="black" points="916.04,-318.44 922.47,-310.02 912.2,-312.59 916.04,-318.44"/>
</g>
<!-- library.domain.model.loan.rule.RestrictionOfQuantity&#45;&gt;library.domain.model.loan.rule.Loanability -->
<g id="edge13" class="edge">
<title>library.domain.model.loan.rule.RestrictionOfQuantity&#45;&gt;library.domain.model.loan.rule.Loanability</title>
<path fill="none" stroke="black" d="M744.76,-356.99C733.86,-345.54 719.58,-330.53 707.48,-317.82"/>
<polygon fill="black" stroke="black" points="709.71,-315.09 700.28,-310.26 704.64,-319.92 709.71,-315.09"/>
</g>
<!-- library.domain.model.material.entry.Entry -->
<g id="node17" class="node">
<title>library.domain.model.material.entry.Entry</title>
<g id="a_node17"><a xlink:href="./domain.html#library.domain.model.material.entry.Entry" xlink:title="所蔵品目\nEntry">
<polygon fill="#eedd82" stroke="black" points="1274.9,-77 1200.9,-77 1200.9,-39 1274.9,-39 1274.9,-77"/>
<text text-anchor="middle" x="1237.9" y="-61.8" font-family="Times,serif" font-size="14.00">所蔵品目</text>
<text text-anchor="middle" x="1237.9" y="-46.8" font-family="Times,serif" font-size="14.00">Entry</text>
</a>
</g>
</g>
<!-- library.domain.model.loan.rule.RestrictionOfQuantity&#45;&gt;library.domain.model.material.entry.Entry -->
<g id="edge14" class="edge">
<title>library.domain.model.loan.rule.RestrictionOfQuantity&#45;&gt;library.domain.model.material.entry.Entry</title>
<path fill="none" stroke="black" d="M848.9,-374.76C985.69,-373.56 1238.76,-367.7 1269.9,-341 1349.66,-272.6 1327.36,-200.66 1283.9,-105 1280.48,-97.48 1275.27,-90.5 1269.56,-84.37"/>
<polygon fill="black" stroke="black" points="1271.74,-81.61 1262.16,-77.08 1266.82,-86.59 1271.74,-81.61"/>
</g>
<!-- library.domain.model.material.entry.EntryType -->
<g id="node19" class="node">
<title>library.domain.model.material.entry.EntryType</title>
<g id="a_node19"><a xlink:href="./domain.html#library.domain.model.material.entry.EntryType" xlink:title="所蔵品目種別\nEntryType">
<polygon fill="#eedd82" stroke="black" points="1260.9,-310 1158.9,-310 1158.9,-272 1260.9,-272 1260.9,-310"/>
<text text-anchor="middle" x="1209.9" y="-294.8" font-family="Times,serif" font-size="14.00">所蔵品目種別</text>
<text text-anchor="middle" x="1209.9" y="-279.8" font-family="Times,serif" font-size="14.00">EntryType</text>
</a>
</g>
</g>
<!-- library.domain.model.loan.rule.RestrictionOfQuantity&#45;&gt;library.domain.model.material.entry.EntryType -->
<g id="edge15" class="edge">
<title>library.domain.model.loan.rule.RestrictionOfQuantity&#45;&gt;library.domain.model.material.entry.EntryType</title>
<path fill="none" stroke="black" d="M848.94,-373.01C945.48,-369.8 1094.52,-361.59 1146.9,-341 1160.67,-335.59 1173.91,-326.16 1184.68,-317.02"/>
<polygon fill="black" stroke="black" points="1187.25,-319.41 1192.39,-310.15 1182.59,-314.19 1187.25,-319.41"/>
</g>
<!-- library.domain.model.loan.rule.RestrictionOfQuantity&#45;&gt;library.domain.model.material.item.Item -->
<g id="edge16" class="edge">
<title>library.domain.model.loan.rule.RestrictionOfQuantity&#45;&gt;library.domain.model.material.item.Item</title>
<path fill="none" stroke="black" d="M674.48,-359.69C646.58,-355.43 615.52,-351.33 586.9,-349 572.34,-347.81 71.15,-351.41 60.9,-341 10.38,-289.7 12.54,-232.34 60.9,-179 89.15,-147.83 375.25,-137.04 485.71,-134.01"/>
<polygon fill="black" stroke="black" points="485.93,-137.5 495.84,-133.74 485.75,-130.51 485.93,-137.5"/>
</g>
<!-- library.domain.model.loan.rule.RestrictionOfQuantityMap&#45;&gt;library.domain.model.loan.rule.RestrictionOfQuantity -->
<g id="edge29" class="edge">
<title>library.domain.model.loan.rule.RestrictionOfQuantityMap&#45;&gt;library.domain.model.loan.rule.RestrictionOfQuantity</title>
<path fill="none" stroke="black" d="M755.84,-433.84C756.74,-425.34 757.85,-415.01 758.86,-405.5"/>
<polygon fill="black" stroke="black" points="762.37,-405.56 759.95,-395.25 755.41,-404.82 762.37,-405.56"/>
</g>
<!-- library.domain.model.loan.rule.RestrictionOfQuantityMap&#45;&gt;library.domain.model.member.MemberType -->
<g id="edge30" class="edge">
<title>library.domain.model.loan.rule.RestrictionOfQuantityMap&#45;&gt;library.domain.model.member.MemberType</title>
<path fill="none" stroke="black" d="M857.02,-445.05C1082.39,-429.84 1613.58,-394.02 1799.91,-381.45"/>
<polygon fill="black" stroke="black" points="1800.36,-384.93 1810.11,-380.76 1799.89,-377.94 1800.36,-384.93"/>
</g>
<!-- library.domain.model.material.entry.EntryNumber -->
<g id="node18" class="node">
<title>library.domain.model.material.entry.EntryNumber</title>
<g id="a_node18"><a xlink:href="./domain.html#library.domain.model.material.entry.EntryNumber" xlink:title="所蔵品目番号\nEntryNumber">
<polygon fill="#eedd82" stroke="black" points="1274.9,-151 1158.9,-151 1158.9,-113 1274.9,-113 1274.9,-151"/>
<text text-anchor="middle" x="1216.9" y="-135.8" font-family="Times,serif" font-size="14.00">所蔵品目番号</text>
<text text-anchor="middle" x="1216.9" y="-120.8" font-family="Times,serif" font-size="14.00">EntryNumber</text>
</a>
</g>
</g>
<!-- library.domain.model.material.item.Item&#45;&gt;library.domain.model.material.entry.Entry -->
<g id="edge43" class="edge">
<title>library.domain.model.material.item.Item&#45;&gt;library.domain.model.material.entry.Entry</title>
<path fill="none" stroke="black" d="M562.15,-127.62C676.88,-115.97 1056.53,-77.42 1190.55,-63.81"/>
<polygon fill="black" stroke="black" points="1190.92,-67.29 1200.51,-62.8 1190.21,-60.33 1190.92,-67.29"/>
</g>
<!-- library.domain.model.material.item.ItemNumber -->
<g id="node21" class="node">
<title>library.domain.model.material.item.ItemNumber</title>
<g id="a_node21"><a xlink:href="./domain.html#library.domain.model.material.item.ItemNumber" xlink:title="所蔵品番号\nItemNumber">
<polygon fill="#eedd82" stroke="black" points="582.9,-77 474.9,-77 474.9,-39 582.9,-39 582.9,-77"/>
<text text-anchor="middle" x="528.9" y="-61.8" font-family="Times,serif" font-size="14.00">所蔵品番号</text>
<text text-anchor="middle" x="528.9" y="-46.8" font-family="Times,serif" font-size="14.00">ItemNumber</text>
</a>
</g>
</g>
<!-- library.domain.model.material.item.Item&#45;&gt;library.domain.model.material.item.ItemNumber -->
<g id="edge44" class="edge">
<title>library.domain.model.material.item.Item&#45;&gt;library.domain.model.material.item.ItemNumber</title>
<path fill="none" stroke="black" d="M528.9,-112.83C528.9,-105.13 528.9,-95.97 528.9,-87.42"/>
<polygon fill="black" stroke="black" points="532.4,-87.41 528.9,-77.41 525.4,-87.41 532.4,-87.41"/>
</g>
<!-- library.domain.model.material.item.ItemWithStatus -->
<g id="node22" class="node">
<title>library.domain.model.material.item.ItemWithStatus</title>
<g id="a_node22"><a xlink:href="./domain.html#library.domain.model.material.item.ItemWithStatus" xlink:title="所蔵品とその状態\nItemWithStatus">
<polygon fill="#eedd82" stroke="black" points="600.4,-225 469.4,-225 469.4,-187 600.4,-187 600.4,-225"/>
<text text-anchor="middle" x="534.9" y="-209.8" font-family="Times,serif" font-size="14.00">所蔵品とその状態</text>
<text text-anchor="middle" x="534.9" y="-194.8" font-family="Times,serif" font-size="14.00">ItemWithStatus</text>
</a>
</g>
</g>
<!-- library.domain.model.material.item.ItemWithStatus&#45;&gt;library.domain.model.material.item.Item -->
<g id="edge42" class="edge">
<title>library.domain.model.material.item.ItemWithStatus&#45;&gt;library.domain.model.material.item.Item</title>
<path fill="none" stroke="black" d="M533.39,-186.83C532.74,-179.13 531.98,-169.97 531.27,-161.42"/>
<polygon fill="black" stroke="black" points="534.75,-161.09 530.44,-151.41 527.78,-161.67 534.75,-161.09"/>
</g>
<!-- library.domain.model.reservation.Reservation -->
<g id="node26" class="node">
<title>library.domain.model.reservation.Reservation</title>
<g id="a_node26"><a xlink:href="./domain.html#library.domain.model.reservation.Reservation" xlink:title="*貸出予約\nReservation">
<polygon fill="greenyellow" stroke="black" points="1511.9,-225 1409.9,-225 1409.9,-187 1511.9,-187 1511.9,-225"/>
<text text-anchor="middle" x="1460.9" y="-209.8" font-family="Times,serif" font-size="14.00">*貸出予約</text>
<text text-anchor="middle" x="1460.9" y="-194.8" font-family="Times,serif" font-size="14.00">Reservation</text>
</a>
</g>
</g>
<!-- library.domain.model.reservation.Reservation&#45;&gt;library.domain.model.material.entry.Entry -->
<g id="edge36" class="edge">
<title>library.domain.model.reservation.Reservation&#45;&gt;library.domain.model.material.entry.Entry</title>
<path fill="none" stroke="black" d="M1424.68,-186.94C1400.76,-174.74 1371.88,-159.37 1360.9,-151 1338.4,-133.85 1339.12,-122.51 1316.9,-105 1306.37,-96.7 1294.19,-88.87 1282.59,-82.1"/>
<polygon fill="black" stroke="black" points="1284.3,-79.05 1273.88,-77.15 1280.84,-85.13 1284.3,-79.05"/>
</g>
<!-- library.domain.model.reservation.Reservation&#45;&gt;library.domain.model.material.entry.EntryNumber -->
<g id="edge37" class="edge">
<title>library.domain.model.reservation.Reservation&#45;&gt;library.domain.model.material.entry.EntryNumber</title>
<path fill="none" stroke="black" d="M1425.25,-186.87C1418.9,-184.01 1412.27,-181.26 1405.9,-179 1366.76,-165.15 1321.63,-153.99 1285.28,-146.14"/>
<polygon fill="black" stroke="black" points="1285.78,-142.66 1275.27,-144.01 1284.33,-149.51 1285.78,-142.66"/>
</g>
<!-- library.domain.model.reservation.Reservation&#45;&gt;library.domain.model.member.Member -->
<g id="edge38" class="edge">
<title>library.domain.model.reservation.Reservation&#45;&gt;library.domain.model.member.Member</title>
<path fill="none" stroke="black" d="M1512.24,-203.73C1601.2,-200.59 1789.55,-189.83 1954.34,-151.07"/>
<polygon fill="black" stroke="black" points="1955.25,-154.45 1964.16,-148.72 1953.62,-147.64 1955.25,-154.45"/>
</g>
<!-- library.domain.model.reservation.Reservation&#45;&gt;library.domain.model.member.MemberNumber -->
<g id="edge39" class="edge">
<title>library.domain.model.reservation.Reservation&#45;&gt;library.domain.model.member.MemberNumber</title>
<path fill="none" stroke="black" d="M1512.16,-196.17C1584.43,-183.72 1716.87,-160.91 1801.26,-146.37"/>
<polygon fill="black" stroke="black" points="1802.05,-149.79 1811.31,-144.64 1800.86,-142.89 1802.05,-149.79"/>
</g>
<!-- library.domain.model.reservation.ReservationNumber -->
<g id="node27" class="node">
<title>library.domain.model.reservation.ReservationNumber</title>
<g id="a_node27"><a xlink:href="./domain.html#library.domain.model.reservation.ReservationNumber" xlink:title="予約番号\nReservationNumber">
<polygon fill="#eedd82" stroke="black" points="1530.4,-151 1369.4,-151 1369.4,-113 1530.4,-113 1530.4,-151"/>
<text text-anchor="middle" x="1449.9" y="-135.8" font-family="Times,serif" font-size="14.00">予約番号</text>
<text text-anchor="middle" x="1449.9" y="-120.8" font-family="Times,serif" font-size="14.00">ReservationNumber</text>
</a>
</g>
</g>
<!-- library.domain.model.reservation.Reservation&#45;&gt;library.domain.model.reservation.ReservationNumber -->
<g id="edge40" class="edge">
<title>library.domain.model.reservation.Reservation&#45;&gt;library.domain.model.reservation.ReservationNumber</title>
<path fill="none" stroke="black" d="M1458.12,-186.83C1456.95,-179.13 1455.55,-169.97 1454.24,-161.42"/>
<polygon fill="black" stroke="black" points="1457.68,-160.77 1452.71,-151.41 1450.76,-161.83 1457.68,-160.77"/>
</g>
<!-- library.domain.model.reservation.Reservations -->
<g id="node28" class="node">
<title>library.domain.model.reservation.Reservations</title>
<g id="a_node28"><a xlink:href="./domain.html#library.domain.model.reservation.Reservations" xlink:title="貸出予約リスト\nReservations">
<polygon fill="#eedd82" stroke="black" points="1518.9,-310 1402.9,-310 1402.9,-272 1518.9,-272 1518.9,-310"/>
<text text-anchor="middle" x="1460.9" y="-294.8" font-family="Times,serif" font-size="14.00">貸出予約リスト</text>
<text text-anchor="middle" x="1460.9" y="-279.8" font-family="Times,serif" font-size="14.00">Reservations</text>
</a>
</g>
</g>
<!-- library.domain.model.reservation.Reservations&#45;&gt;library.domain.model.reservation.Reservation -->
<g id="edge35" class="edge">
<title>library.domain.model.reservation.Reservations&#45;&gt;library.domain.model.reservation.Reservation</title>
<path fill="none" stroke="black" d="M1460.9,-271.99C1460.9,-261.3 1460.9,-247.5 1460.9,-235.37"/>
<polygon fill="black" stroke="black" points="1464.4,-235.26 1460.9,-225.26 1457.4,-235.26 1464.4,-235.26"/>
</g>
<!-- library.domain.model.reservation.wait.ReservationWithWaitingOrder -->
<g id="node29" class="node">
<title>library.domain.model.reservation.wait.ReservationWithWaitingOrder</title>
<g id="a_node29"><a xlink:href="./domain.html#library.domain.model.reservation.wait.ReservationWithWaitingOrder" xlink:title="貸出予約と待ち順番\nReservationWithWaitingOrder">
<polygon fill="#eedd82" stroke="black" points="1787.4,-310 1554.4,-310 1554.4,-272 1787.4,-272 1787.4,-310"/>
<text text-anchor="middle" x="1670.9" y="-294.8" font-family="Times,serif" font-size="14.00">貸出予約と待ち順番</text>
<text text-anchor="middle" x="1670.9" y="-279.8" font-family="Times,serif" font-size="14.00">ReservationWithWaitingOrder</text>
</a>
</g>
</g>
<!-- library.domain.model.reservation.wait.ReservationWithWaitingOrder&#45;&gt;library.domain.model.reservation.Reservation -->
<g id="edge34" class="edge">
<title>library.domain.model.reservation.wait.ReservationWithWaitingOrder&#45;&gt;library.domain.model.reservation.Reservation</title>
<path fill="none" stroke="black" d="M1625.33,-271.99C1593.25,-259.31 1550.12,-242.26 1516.08,-228.81"/>
<polygon fill="black" stroke="black" points="1517.33,-225.54 1506.74,-225.12 1514.75,-232.05 1517.33,-225.54"/>
</g>
<!-- library.domain.model.retention.Retained -->
<g id="node30" class="node">
<title>library.domain.model.retention.Retained</title>
<g id="a_node30"><a xlink:href="./domain.html#library.domain.model.retention.Retained" xlink:title="取置資料\nRetained">
<polygon fill="#eedd82" stroke="black" points="444.9,-225 364.9,-225 364.9,-187 444.9,-187 444.9,-225"/>
<text text-anchor="middle" x="404.9" y="-209.8" font-family="Times,serif" font-size="14.00">取置資料</text>
<text text-anchor="middle" x="404.9" y="-194.8" font-family="Times,serif" font-size="14.00">Retained</text>
</a>
</g>
</g>
<!-- library.domain.model.retention.Retained&#45;&gt;library.domain.model.material.item.Item -->
<g id="edge41" class="edge">
<title>library.domain.model.retention.Retained&#45;&gt;library.domain.model.material.item.Item</title>
<path fill="none" stroke="black" d="M436.19,-186.83C452.2,-177.54 471.86,-166.12 488.95,-156.2"/>
<polygon fill="black" stroke="black" points="490.73,-159.21 497.62,-151.16 487.21,-153.16 490.73,-159.21"/>
</g>
</g>
</svg>
