<?xml version="1.0" encoding="UTF-8" standalone="no"?>
<!DOCTYPE svg PUBLIC "-//W3C//DTD SVG 1.1//EN"
 "http://www.w3.org/Graphics/SVG/1.1/DTD/svg11.dtd">
<!-- Generated by graphviz version 2.43.0 (0)
 -->
<!-- Title: OverconcentrationBusinessRuleDiagram Pages: 1 -->
<svg width="1108pt" height="1214pt"
 viewBox="0.00 0.00 1108.00 1214.19" xmlns="http://www.w3.org/2000/svg" xmlns:xlink="http://www.w3.org/1999/xlink">
<g id="graph0" class="graph" transform="scale(1 1) rotate(0) translate(4 1210.19)">
<title>OverconcentrationBusinessRuleDiagram</title>
<polygon fill="white" stroke="transparent" points="-4,4 -4,-1210.19 1104,-1210.19 1104,4 -4,4"/>
<text text-anchor="middle" x="550" y="-7.8" font-family="Times,serif" font-size="14.00">OverconcentrationBusinessRuleDiagram</text>
<!-- library.domain.model.loan.Loan -->
<g id="node1" class="node">
<title>library.domain.model.loan.Loan</title>
<g id="a_node1"><a xlink:href="./domain.html#library.domain.model.loan.Loan" xlink:title="*貸出\nLoan">
<polygon fill="greenyellow" stroke="black" points="143.5,-475.23 89.5,-475.23 89.5,-437.23 143.5,-437.23 143.5,-475.23"/>
<text text-anchor="middle" x="116.5" y="-460.03" font-family="Times,serif" font-size="14.00">*貸出</text>
<text text-anchor="middle" x="116.5" y="-445.03" font-family="Times,serif" font-size="14.00">Loan</text>
</a>
</g>
</g>
<!-- library.domain.model.material.item.Item -->
<g id="node12" class="node">
<title>library.domain.model.material.item.Item</title>
<g id="a_node12"><a xlink:href="./domain.html#library.domain.model.material.item.Item" xlink:title="*所蔵品\nItem">
<polygon fill="greenyellow" stroke="black" points="457.5,-1061.23 340.5,-1061.23 340.5,-987.23 457.5,-987.23 457.5,-1061.23"/>
<text text-anchor="middle" x="399" y="-1033.23" font-family="Times,serif" font-size="30.00">*所蔵品</text>
<text text-anchor="middle" x="399" y="-1000.23" font-family="Times,serif" font-size="30.00">Item</text>
</a>
</g>
</g>
<!-- library.domain.model.loan.Loan&#45;&gt;library.domain.model.material.item.Item -->
<g id="edge36" class="edge">
<title>library.domain.model.loan.Loan&#45;&gt;library.domain.model.material.item.Item</title>
<path fill="none" stroke="black" d="M141.83,-475.48C169.23,-498.72 212.6,-540.55 233,-587.23 296.17,-731.73 186.89,-805.59 269,-940.23 283.56,-964.1 307.77,-982.49 331.3,-995.89"/>
<polygon fill="black" stroke="black" points="329.82,-999.07 340.27,-1000.79 333.17,-992.92 329.82,-999.07"/>
</g>
<!-- library.domain.model.member.Member -->
<g id="node14" class="node">
<title>library.domain.model.member.Member</title>
<g id="a_node14"><a xlink:href="./domain.html#library.domain.model.member.Member" xlink:title="会員\nMember">
<polygon fill="#eedd82" stroke="black" points="472,-405.23 326,-405.23 326,-331.23 472,-331.23 472,-405.23"/>
<text text-anchor="middle" x="399" y="-377.23" font-family="Times,serif" font-size="30.00">会員</text>
<text text-anchor="middle" x="399" y="-344.23" font-family="Times,serif" font-size="30.00">Member</text>
</a>
</g>
</g>
<!-- library.domain.model.loan.Loan&#45;&gt;library.domain.model.member.Member -->
<g id="edge9" class="edge">
<title>library.domain.model.loan.Loan&#45;&gt;library.domain.model.member.Member</title>
<path fill="none" stroke="black" d="M143.87,-450.71C167.43,-445.57 202.78,-437.35 233,-428.23 260.42,-419.95 289.94,-409.66 316.32,-399.96"/>
<polygon fill="black" stroke="black" points="317.73,-403.17 325.89,-396.42 315.3,-396.61 317.73,-403.17"/>
</g>
<!-- library.domain.model.member.MemberNumber -->
<g id="node15" class="node">
<title>library.domain.model.member.MemberNumber</title>
<g id="a_node15"><a xlink:href="./domain.html#library.domain.model.member.MemberNumber" xlink:title="会員番号\nMemberNumber">
<polygon fill="#eedd82" stroke="black" points="837,-373.23 565,-373.23 565,-299.23 837,-299.23 837,-373.23"/>
<text text-anchor="middle" x="701" y="-345.23" font-family="Times,serif" font-size="30.00">会員番号</text>
<text text-anchor="middle" x="701" y="-312.23" font-family="Times,serif" font-size="30.00">MemberNumber</text>
</a>
</g>
</g>
<!-- library.domain.model.loan.Loan&#45;&gt;library.domain.model.member.MemberNumber -->
<g id="edge1" class="edge">
<title>library.domain.model.loan.Loan&#45;&gt;library.domain.model.member.MemberNumber</title>
<path fill="none" stroke="black" d="M143.55,-456.48C209.38,-456.49 387.26,-452.67 529,-414.23 560.83,-405.6 594.18,-391.62 622.88,-377.87"/>
<polygon fill="black" stroke="black" points="624.57,-380.94 632.03,-373.42 621.51,-374.65 624.57,-380.94"/>
</g>
<!-- library.domain.model.loan.LoanRequest -->
<g id="node2" class="node">
<title>library.domain.model.loan.LoanRequest</title>
<g id="a_node2"><a xlink:href="./domain.html#library.domain.model.loan.LoanRequest" xlink:title="貸出依頼\nLoanRequest">
<polygon fill="lemonchiffon" stroke="black" points="454,-237.23 344,-237.23 344,-199.23 454,-199.23 454,-237.23"/>
<text text-anchor="middle" x="399" y="-222.03" font-family="Times,serif" font-size="14.00">貸出依頼</text>
<text text-anchor="middle" x="399" y="-207.03" font-family="Times,serif" font-size="14.00">LoanRequest</text>
</a>
</g>
</g>
<!-- library.domain.model.loan.LoanRequest&#45;&gt;library.domain.model.member.MemberNumber -->
<g id="edge2" class="edge">
<title>library.domain.model.loan.LoanRequest&#45;&gt;library.domain.model.member.MemberNumber</title>
<path fill="none" stroke="black" d="M454.13,-229.39C477.5,-234.9 504.95,-242.29 529,-251.23 561.25,-263.21 595.45,-279.45 624.72,-294.52"/>
<polygon fill="black" stroke="black" points="623.15,-297.65 633.64,-299.15 626.38,-291.43 623.15,-297.65"/>
</g>
<!-- library.domain.model.loan.Loans -->
<g id="node3" class="node">
<title>library.domain.model.loan.Loans</title>
<g id="a_node3"><a xlink:href="./domain.html#library.domain.model.loan.Loans" xlink:title="貸出のリスト\nLoans">
<polygon fill="lemonchiffon" stroke="black" points="167.5,-1180.23 65.5,-1180.23 65.5,-1142.23 167.5,-1142.23 167.5,-1180.23"/>
<text text-anchor="middle" x="116.5" y="-1165.03" font-family="Times,serif" font-size="14.00">貸出のリスト</text>
<text text-anchor="middle" x="116.5" y="-1150.03" font-family="Times,serif" font-size="14.00">Loans</text>
</a>
</g>
</g>
<!-- library.domain.model.material.entry.Entry -->
<g id="node8" class="node">
<title>library.domain.model.material.entry.Entry</title>
<g id="a_node8"><a xlink:href="./domain.html#library.domain.model.material.entry.Entry" xlink:title="所蔵品目\nEntry">
<polygon fill="#eedd82" stroke="black" points="766.5,-865.23 635.5,-865.23 635.5,-791.23 766.5,-791.23 766.5,-865.23"/>
<text text-anchor="middle" x="701" y="-837.23" font-family="Times,serif" font-size="30.00">所蔵品目</text>
<text text-anchor="middle" x="701" y="-804.23" font-family="Times,serif" font-size="30.00">Entry</text>
</a>
</g>
</g>
<!-- library.domain.model.loan.Loans&#45;&gt;library.domain.model.material.entry.Entry -->
<g id="edge16" class="edge">
<title>library.domain.model.loan.Loans&#45;&gt;library.domain.model.material.entry.Entry</title>
<path fill="none" stroke="black" d="M167.57,-1177.36C249.82,-1200.63 415.71,-1233.69 529,-1164.23 633,-1100.46 676.21,-951.44 692.01,-875.11"/>
<polygon fill="black" stroke="black" points="695.45,-875.78 693.98,-865.28 688.59,-874.4 695.45,-875.78"/>
</g>
<!-- library.domain.model.loan.Loans&#45;&gt;library.domain.model.material.item.Item -->
<g id="edge37" class="edge">
<title>library.domain.model.loan.Loans&#45;&gt;library.domain.model.material.item.Item</title>
<path fill="none" stroke="black" d="M165.13,-1142.14C186.13,-1133.43 210.99,-1122.74 233,-1112.23 265.79,-1096.57 301.44,-1077.78 331.19,-1061.59"/>
<polygon fill="black" stroke="black" points="333.13,-1064.52 340.23,-1056.66 329.77,-1058.38 333.13,-1064.52"/>
</g>
<!-- library.domain.model.loan.rule.LoanStatus -->
<g id="node4" class="node">
<title>library.domain.model.loan.rule.LoanStatus</title>
<g id="a_node4"><a xlink:href="./domain.html#library.domain.model.loan.rule.LoanStatus" xlink:title="貸出状況\nLoanStatus">
<polygon fill="lemonchiffon" stroke="black" points="165.5,-363.23 67.5,-363.23 67.5,-325.23 165.5,-325.23 165.5,-363.23"/>
<text text-anchor="middle" x="116.5" y="-348.03" font-family="Times,serif" font-size="14.00">貸出状況</text>
<text text-anchor="middle" x="116.5" y="-333.03" font-family="Times,serif" font-size="14.00">LoanStatus</text>
</a>
</g>
</g>
<!-- library.domain.model.loan.rule.LoanStatus&#45;&gt;library.domain.model.material.item.Item -->
<g id="edge38" class="edge">
<title>library.domain.model.loan.rule.LoanStatus&#45;&gt;library.domain.model.material.item.Item</title>
<path fill="none" stroke="black" d="M165.72,-343.33C189.61,-345.62 216.75,-352.86 233,-372.23 314.3,-469.11 205.23,-831 269,-940.23 283.22,-964.58 307.63,-983.13 331.42,-996.52"/>
<polygon fill="black" stroke="black" points="330.02,-999.74 340.49,-1001.4 333.34,-993.58 330.02,-999.74"/>
</g>
<!-- library.domain.model.loan.rule.LoanStatus&#45;&gt;library.domain.model.member.Member -->
<g id="edge10" class="edge">
<title>library.domain.model.loan.rule.LoanStatus&#45;&gt;library.domain.model.member.Member</title>
<path fill="none" stroke="black" d="M165.72,-348.35C206.89,-351.87 266.99,-357.02 315.75,-361.19"/>
<polygon fill="black" stroke="black" points="315.7,-364.7 325.97,-362.06 316.3,-357.72 315.7,-364.7"/>
</g>
<!-- library.domain.model.loan.rule.LoanStatus&#45;&gt;library.domain.model.member.MemberNumber -->
<g id="edge3" class="edge">
<title>library.domain.model.loan.rule.LoanStatus&#45;&gt;library.domain.model.member.MemberNumber</title>
<path fill="none" stroke="black" d="M165.75,-335.41C195.42,-330.44 234.27,-324.74 269,-322.23 384.26,-313.9 413.54,-317.51 529,-322.23 537.34,-322.57 545.91,-323 554.55,-323.5"/>
<polygon fill="black" stroke="black" points="554.52,-327.01 564.72,-324.13 554.95,-320.02 554.52,-327.01"/>
</g>
<!-- library.domain.model.loan.rule.Restriction -->
<g id="node5" class="node">
<title>library.domain.model.loan.rule.Restriction</title>
<g id="a_node5"><a xlink:href="./domain.html#library.domain.model.loan.rule.Restriction" xlink:title="*貸出制限\nRestriction">
<polygon fill="greenyellow" stroke="black" points="164,-634.23 69,-634.23 69,-596.23 164,-596.23 164,-634.23"/>
<text text-anchor="middle" x="116.5" y="-619.03" font-family="Times,serif" font-size="14.00">*貸出制限</text>
<text text-anchor="middle" x="116.5" y="-604.03" font-family="Times,serif" font-size="14.00">Restriction</text>
</a>
</g>
</g>
<!-- library.domain.model.loan.rule.Restriction&#45;&gt;library.domain.model.material.item.Item -->
<g id="edge39" class="edge">
<title>library.domain.model.loan.rule.Restriction&#45;&gt;library.domain.model.material.item.Item</title>
<path fill="none" stroke="black" d="M127.59,-634.49C148.32,-674.32 196.78,-768.82 233,-850.23 250.51,-889.59 241.68,-906.92 269,-940.23 285.98,-960.93 309.44,-978.3 331.69,-991.76"/>
<polygon fill="black" stroke="black" points="330.08,-994.87 340.47,-996.92 333.62,-988.84 330.08,-994.87"/>
</g>
<!-- library.domain.model.loan.rule.Restriction&#45;&gt;library.domain.model.member.Member -->
<g id="edge11" class="edge">
<title>library.domain.model.loan.rule.Restriction&#45;&gt;library.domain.model.member.Member</title>
<path fill="none" stroke="black" d="M133.64,-596.02C160.18,-565.02 215.46,-502.8 269,-457.23 288.12,-440.95 310.22,-424.85 330.67,-410.9"/>
<polygon fill="black" stroke="black" points="332.68,-413.76 339.01,-405.26 328.76,-407.96 332.68,-413.76"/>
</g>
<!-- library.domain.model.loan.rule.RestrictionOfQuantity -->
<g id="node6" class="node">
<title>library.domain.model.loan.rule.RestrictionOfQuantity</title>
<g id="a_node6"><a xlink:href="./domain.html#library.domain.model.loan.rule.RestrictionOfQuantity" xlink:title="*貸出点数の制限\nRestrictionOfQuantity">
<polygon fill="greenyellow" stroke="black" points="203.5,-1103.23 29.5,-1103.23 29.5,-1065.23 203.5,-1065.23 203.5,-1103.23"/>
<text text-anchor="middle" x="116.5" y="-1088.03" font-family="Times,serif" font-size="14.00">*貸出点数の制限</text>
<text text-anchor="middle" x="116.5" y="-1073.03" font-family="Times,serif" font-size="14.00">RestrictionOfQuantity</text>
</a>
</g>
</g>
<!-- library.domain.model.loan.rule.RestrictionOfQuantity&#45;&gt;library.domain.model.material.entry.Entry -->
<g id="edge17" class="edge">
<title>library.domain.model.loan.rule.RestrictionOfQuantity&#45;&gt;library.domain.model.material.entry.Entry</title>
<path fill="none" stroke="black" d="M203.86,-1090.12C307.74,-1095.7 474.9,-1099.42 529,-1070.23 607.27,-1027.99 657.81,-932.44 682.38,-874.84"/>
<polygon fill="black" stroke="black" points="685.62,-876.17 686.24,-865.59 679.16,-873.47 685.62,-876.17"/>
</g>
<!-- library.domain.model.loan.rule.RestrictionOfQuantity&#45;&gt;library.domain.model.material.item.Item -->
<g id="edge40" class="edge">
<title>library.domain.model.loan.rule.RestrictionOfQuantity&#45;&gt;library.domain.model.material.item.Item</title>
<path fill="none" stroke="black" d="M203.57,-1065.82C244.37,-1057.09 292.4,-1046.82 330.51,-1038.66"/>
<polygon fill="black" stroke="black" points="331.44,-1042.04 340.48,-1036.53 329.97,-1035.2 331.44,-1042.04"/>
</g>
<!-- library.domain.model.material.entry.Entries -->
<g id="node7" class="node">
<title>library.domain.model.material.entry.Entries</title>
<g id="a_node7"><a xlink:href="./domain.html#library.domain.model.material.entry.Entries" xlink:title="所蔵品目のリスト\nEntries">
<polygon fill="lemonchiffon" stroke="black" points="464.5,-819.23 333.5,-819.23 333.5,-781.23 464.5,-781.23 464.5,-819.23"/>
<text text-anchor="middle" x="399" y="-804.03" font-family="Times,serif" font-size="14.00">所蔵品目のリスト</text>
<text text-anchor="middle" x="399" y="-789.03" font-family="Times,serif" font-size="14.00">Entries</text>
</a>
</g>
</g>
<!-- library.domain.model.material.entry.Entries&#45;&gt;library.domain.model.material.entry.Entry -->
<g id="edge18" class="edge">
<title>library.domain.model.material.entry.Entries&#45;&gt;library.domain.model.material.entry.Entry</title>
<path fill="none" stroke="black" d="M464.73,-806.27C511.94,-810.67 576.04,-816.66 625.41,-821.26"/>
<polygon fill="black" stroke="black" points="625.11,-824.75 635.39,-822.2 625.76,-817.78 625.11,-824.75"/>
</g>
<!-- library.domain.model.material.entry.EntryNumber -->
<g id="node9" class="node">
<title>library.domain.model.material.entry.EntryNumber</title>
<g id="a_node9"><a xlink:href="./domain.html#library.domain.model.material.entry.EntryNumber" xlink:title="所蔵品目番号\nEntryNumber">
<polygon fill="#eedd82" stroke="black" points="1100,-555.23 873,-555.23 873,-481.23 1100,-481.23 1100,-555.23"/>
<text text-anchor="middle" x="986.5" y="-527.23" font-family="Times,serif" font-size="30.00">所蔵品目番号</text>
<text text-anchor="middle" x="986.5" y="-494.23" font-family="Times,serif" font-size="30.00">EntryNumber</text>
</a>
</g>
</g>
<!-- library.domain.model.material.entry.Entry&#45;&gt;library.domain.model.material.entry.EntryNumber -->
<g id="edge29" class="edge">
<title>library.domain.model.material.entry.Entry&#45;&gt;library.domain.model.material.entry.EntryNumber</title>
<path fill="none" stroke="black" d="M735.92,-791.14C788.21,-733.96 888.34,-624.47 944.58,-562.97"/>
<polygon fill="black" stroke="black" points="947.38,-565.1 951.55,-555.35 942.21,-560.37 947.38,-565.1"/>
</g>
<!-- library.domain.model.material.entry.EntryNumbers -->
<g id="node10" class="node">
<title>library.domain.model.material.entry.EntryNumbers</title>
<g id="a_node10"><a xlink:href="./domain.html#library.domain.model.material.entry.EntryNumbers" xlink:title="資料番号のリスト\nEntryNumbers">
<polygon fill="lemonchiffon" stroke="black" points="766.5,-133.23 635.5,-133.23 635.5,-95.23 766.5,-95.23 766.5,-133.23"/>
<text text-anchor="middle" x="701" y="-118.03" font-family="Times,serif" font-size="14.00">資料番号のリスト</text>
<text text-anchor="middle" x="701" y="-103.03" font-family="Times,serif" font-size="14.00">EntryNumbers</text>
</a>
</g>
</g>
<!-- library.domain.model.material.entry.EntryNumbers&#45;&gt;library.domain.model.material.entry.EntryNumber -->
<g id="edge30" class="edge">
<title>library.domain.model.material.entry.EntryNumbers&#45;&gt;library.domain.model.material.entry.EntryNumber</title>
<path fill="none" stroke="black" d="M766.84,-117.67C791.22,-121.92 817.69,-130.46 837,-147.23 935.15,-232.43 969.17,-391.61 980.36,-470.87"/>
<polygon fill="black" stroke="black" points="976.93,-471.6 981.74,-481.04 983.87,-470.67 976.93,-471.6"/>
</g>
<!-- library.domain.model.material.instock.EntryInStock -->
<g id="node11" class="node">
<title>library.domain.model.material.instock.EntryInStock</title>
<g id="a_node11"><a xlink:href="./domain.html#library.domain.model.material.instock.EntryInStock" xlink:title="所蔵品目と在庫数\nEntryInStock">
<polygon fill="lemonchiffon" stroke="black" points="464.5,-593.23 333.5,-593.23 333.5,-555.23 464.5,-555.23 464.5,-593.23"/>
<text text-anchor="middle" x="399" y="-578.03" font-family="Times,serif" font-size="14.00">所蔵品目と在庫数</text>
<text text-anchor="middle" x="399" y="-563.03" font-family="Times,serif" font-size="14.00">EntryInStock</text>
</a>
</g>
</g>
<!-- library.domain.model.material.instock.EntryInStock&#45;&gt;library.domain.model.material.entry.Entry -->
<g id="edge19" class="edge">
<title>library.domain.model.material.instock.EntryInStock&#45;&gt;library.domain.model.material.entry.Entry</title>
<path fill="none" stroke="black" d="M464.8,-579.18C486.49,-583.13 509.98,-590.08 529,-602.23 598.63,-646.7 650.49,-730.07 677.93,-782.17"/>
<polygon fill="black" stroke="black" points="674.9,-783.93 682.61,-791.2 681.11,-780.71 674.9,-783.93"/>
</g>
<!-- library.domain.model.material.instock.EntryInStock&#45;&gt;library.domain.model.material.entry.EntryNumber -->
<g id="edge31" class="edge">
<title>library.domain.model.material.instock.EntryInStock&#45;&gt;library.domain.model.material.entry.EntryNumber</title>
<path fill="none" stroke="black" d="M464.61,-568.05C560.29,-558.9 741.38,-541.58 862.77,-529.97"/>
<polygon fill="black" stroke="black" points="863.25,-533.44 872.87,-529 862.58,-526.47 863.25,-533.44"/>
</g>
<!-- library.domain.model.material.item.Item&#45;&gt;library.domain.model.material.entry.Entry -->
<g id="edge20" class="edge">
<title>library.domain.model.material.item.Item&#45;&gt;library.domain.model.material.entry.Entry</title>
<path fill="none" stroke="black" d="M457.77,-1005.97C480.73,-997.56 506.9,-986.47 529,-973.23 575.98,-945.07 622.98,-904.06 655.78,-872.83"/>
<polygon fill="black" stroke="black" points="658.61,-874.97 663.39,-865.52 653.76,-869.92 658.61,-874.97"/>
</g>
<!-- library.domain.model.material.item.ItemWithStatus -->
<g id="node13" class="node">
<title>library.domain.model.material.item.ItemWithStatus</title>
<g id="a_node13"><a xlink:href="./domain.html#library.domain.model.material.item.ItemWithStatus" xlink:title="所蔵品とその状態\nItemWithStatus">
<polygon fill="lemonchiffon" stroke="black" points="182,-1043.23 51,-1043.23 51,-1005.23 182,-1005.23 182,-1043.23"/>
<text text-anchor="middle" x="116.5" y="-1028.03" font-family="Times,serif" font-size="14.00">所蔵品とその状態</text>
<text text-anchor="middle" x="116.5" y="-1013.03" font-family="Times,serif" font-size="14.00">ItemWithStatus</text>
</a>
</g>
</g>
<!-- library.domain.model.material.item.ItemWithStatus&#45;&gt;library.domain.model.material.item.Item -->
<g id="edge41" class="edge">
<title>library.domain.model.material.item.ItemWithStatus&#45;&gt;library.domain.model.material.item.Item</title>
<path fill="none" stroke="black" d="M182.2,-1024.23C226.48,-1024.23 285.08,-1024.23 330.04,-1024.23"/>
<polygon fill="black" stroke="black" points="330.29,-1027.73 340.29,-1024.23 330.29,-1020.73 330.29,-1027.73"/>
</g>
<!-- library.domain.model.member.Member&#45;&gt;library.domain.model.member.MemberNumber -->
<g id="edge4" class="edge">
<title>library.domain.model.member.Member&#45;&gt;library.domain.model.member.MemberNumber</title>
<path fill="none" stroke="black" d="M472.24,-360.52C497.21,-357.86 526.15,-354.77 554.86,-351.71"/>
<polygon fill="black" stroke="black" points="555.42,-355.17 565,-350.63 554.68,-348.21 555.42,-355.17"/>
</g>
<!-- library.domain.model.reservation.Reservation -->
<g id="node16" class="node">
<title>library.domain.model.reservation.Reservation</title>
<g id="a_node16"><a xlink:href="./domain.html#library.domain.model.reservation.Reservation" xlink:title="*貸出予約\nReservation">
<polygon fill="greenyellow" stroke="black" points="167.5,-209.23 65.5,-209.23 65.5,-171.23 167.5,-171.23 167.5,-209.23"/>
<text text-anchor="middle" x="116.5" y="-194.03" font-family="Times,serif" font-size="14.00">*貸出予約</text>
<text text-anchor="middle" x="116.5" y="-179.03" font-family="Times,serif" font-size="14.00">Reservation</text>
</a>
</g>
</g>
<!-- library.domain.model.reservation.Reservation&#45;&gt;library.domain.model.material.entry.Entry -->
<g id="edge21" class="edge">
<title>library.domain.model.reservation.Reservation&#45;&gt;library.domain.model.material.entry.Entry</title>
<path fill="none" stroke="black" d="M167.61,-198.22C191.25,-204.68 217.59,-216.31 233,-237.23 288.68,-312.83 203.98,-590.49 269,-658.23 309.33,-700.24 475.38,-668.5 529,-691.23 578.93,-712.39 626.29,-752.47 658.45,-783.84"/>
<polygon fill="black" stroke="black" points="656.31,-786.65 665.88,-791.2 661.24,-781.67 656.31,-786.65"/>
</g>
<!-- library.domain.model.reservation.Reservation&#45;&gt;library.domain.model.material.entry.EntryNumber -->
<g id="edge32" class="edge">
<title>library.domain.model.reservation.Reservation&#45;&gt;library.domain.model.material.entry.EntryNumber</title>
<path fill="none" stroke="black" d="M149.58,-171.16C257.93,-109.51 615.87,71.59 837,-86.23 962.56,-175.84 983.05,-378.66 985.65,-470.93"/>
<polygon fill="black" stroke="black" points="982.15,-471.17 985.87,-481.09 989.15,-471.02 982.15,-471.17"/>
</g>
<!-- library.domain.model.reservation.Reservation&#45;&gt;library.domain.model.member.Member -->
<g id="edge12" class="edge">
<title>library.domain.model.reservation.Reservation&#45;&gt;library.domain.model.member.Member</title>
<path fill="none" stroke="black" d="M167.57,-207.04C188.44,-214.94 212.53,-225.27 233,-237.23 275.36,-261.98 318.63,-296.75 350.22,-324.26"/>
<polygon fill="black" stroke="black" points="348.17,-327.11 358,-331.08 352.79,-321.85 348.17,-327.11"/>
</g>
<!-- library.domain.model.reservation.Reservation&#45;&gt;library.domain.model.member.MemberNumber -->
<g id="edge5" class="edge">
<title>library.domain.model.reservation.Reservation&#45;&gt;library.domain.model.member.MemberNumber</title>
<path fill="none" stroke="black" d="M167.57,-179.43C247.05,-164.64 405.67,-144.74 529,-190.23 583.48,-210.32 632.38,-256.36 663.79,-291.4"/>
<polygon fill="black" stroke="black" points="661.38,-293.96 670.62,-299.15 666.63,-289.33 661.38,-293.96"/>
</g>
<!-- library.domain.model.reservation.Reservations -->
<g id="node17" class="node">
<title>library.domain.model.reservation.Reservations</title>
<g id="a_node17"><a xlink:href="./domain.html#library.domain.model.reservation.Reservations" xlink:title="貸出予約リスト\nReservations">
<polygon fill="lemonchiffon" stroke="black" points="457,-1155.23 341,-1155.23 341,-1117.23 457,-1117.23 457,-1155.23"/>
<text text-anchor="middle" x="399" y="-1140.03" font-family="Times,serif" font-size="14.00">貸出予約リスト</text>
<text text-anchor="middle" x="399" y="-1125.03" font-family="Times,serif" font-size="14.00">Reservations</text>
</a>
</g>
</g>
<!-- library.domain.model.reservation.Reservations&#45;&gt;library.domain.model.material.entry.Entry -->
<g id="edge22" class="edge">
<title>library.domain.model.reservation.Reservations&#45;&gt;library.domain.model.material.entry.Entry</title>
<path fill="none" stroke="black" d="M457.03,-1131.12C481.06,-1126.69 508.21,-1118.46 529,-1103.23 608.85,-1044.71 659.75,-936.59 683.75,-874.79"/>
<polygon fill="black" stroke="black" points="687.09,-875.87 687.38,-865.28 680.54,-873.38 687.09,-875.87"/>
</g>
<!-- library.domain.model.reservation.ReservedMaterial -->
<g id="node18" class="node">
<title>library.domain.model.reservation.ReservedMaterial</title>
<g id="a_node18"><a xlink:href="./domain.html#library.domain.model.reservation.ReservedMaterial" xlink:title="予約図書\nReservedMaterial">
<polygon fill="lemonchiffon" stroke="black" points="471,-649.23 327,-649.23 327,-611.23 471,-611.23 471,-649.23"/>
<text text-anchor="middle" x="399" y="-634.03" font-family="Times,serif" font-size="14.00">予約図書</text>
<text text-anchor="middle" x="399" y="-619.03" font-family="Times,serif" font-size="14.00">ReservedMaterial</text>
</a>
</g>
</g>
<!-- library.domain.model.reservation.ReservedMaterial&#45;&gt;library.domain.model.material.entry.Entry -->
<g id="edge23" class="edge">
<title>library.domain.model.reservation.ReservedMaterial&#45;&gt;library.domain.model.material.entry.Entry</title>
<path fill="none" stroke="black" d="M471.13,-641.49C490.68,-646.4 511.34,-653.37 529,-663.23 583.48,-693.63 633.28,-745.7 664.9,-783.22"/>
<polygon fill="black" stroke="black" points="662.28,-785.55 671.37,-791 667.66,-781.07 662.28,-785.55"/>
</g>
<!-- library.domain.model.reservation.ReservedMaterial&#45;&gt;library.domain.model.material.entry.EntryNumber -->
<g id="edge33" class="edge">
<title>library.domain.model.reservation.ReservedMaterial&#45;&gt;library.domain.model.material.entry.EntryNumber</title>
<path fill="none" stroke="black" d="M471.25,-621.42C558.15,-610.07 709.26,-588.42 837,-560.23 845.46,-558.36 854.15,-556.29 862.88,-554.11"/>
<polygon fill="black" stroke="black" points="863.91,-557.46 872.74,-551.6 862.19,-550.68 863.91,-557.46"/>
</g>
<!-- library.domain.model.reservation.request.ReservationRequest -->
<g id="node19" class="node">
<title>library.domain.model.reservation.request.ReservationRequest</title>
<g id="a_node19"><a xlink:href="./domain.html#library.domain.model.reservation.request.ReservationRequest" xlink:title="予約依頼\nReservationRequest">
<polygon fill="lemonchiffon" stroke="black" points="479.5,-537.23 318.5,-537.23 318.5,-499.23 479.5,-499.23 479.5,-537.23"/>
<text text-anchor="middle" x="399" y="-522.03" font-family="Times,serif" font-size="14.00">予約依頼</text>
<text text-anchor="middle" x="399" y="-507.03" font-family="Times,serif" font-size="14.00">ReservationRequest</text>
</a>
</g>
</g>
<!-- library.domain.model.reservation.request.ReservationRequest&#45;&gt;library.domain.model.material.entry.EntryNumber -->
<g id="edge34" class="edge">
<title>library.domain.model.reservation.request.ReservationRequest&#45;&gt;library.domain.model.material.entry.EntryNumber</title>
<path fill="none" stroke="black" d="M479.57,-518.23C578.21,-518.23 747.38,-518.23 862.71,-518.23"/>
<polygon fill="black" stroke="black" points="863,-521.73 873,-518.23 863,-514.73 863,-521.73"/>
</g>
<!-- library.domain.model.reservation.request.ReservationRequest&#45;&gt;library.domain.model.member.MemberNumber -->
<g id="edge6" class="edge">
<title>library.domain.model.reservation.request.ReservationRequest&#45;&gt;library.domain.model.member.MemberNumber</title>
<path fill="none" stroke="black" d="M479.59,-504.06C496.45,-499.38 513.75,-493.23 529,-485.23 579.72,-458.59 628.02,-414.1 660.27,-380.66"/>
<polygon fill="black" stroke="black" points="662.95,-382.93 667.31,-373.27 657.88,-378.1 662.95,-382.93"/>
</g>
<!-- library.domain.model.reservation.rule.ReservationRestriction -->
<g id="node20" class="node">
<title>library.domain.model.reservation.rule.ReservationRestriction</title>
<g id="a_node20"><a xlink:href="./domain.html#library.domain.model.reservation.rule.ReservationRestriction" xlink:title="予約制限\nReservationRestriction">
<polygon fill="lemonchiffon" stroke="black" points="207,-419.23 26,-419.23 26,-381.23 207,-381.23 207,-419.23"/>
<text text-anchor="middle" x="116.5" y="-404.03" font-family="Times,serif" font-size="14.00">予約制限</text>
<text text-anchor="middle" x="116.5" y="-389.03" font-family="Times,serif" font-size="14.00">ReservationRestriction</text>
</a>
</g>
</g>
<!-- library.domain.model.reservation.rule.ReservationRestriction&#45;&gt;library.domain.model.material.entry.Entry -->
<g id="edge24" class="edge">
<title>library.domain.model.reservation.rule.ReservationRestriction&#45;&gt;library.domain.model.material.entry.Entry</title>
<path fill="none" stroke="black" d="M207.07,-409.95C216.88,-414.28 225.88,-420.2 233,-428.23 322.45,-528.98 175.89,-631.84 269,-729.23 309.47,-771.56 472.12,-758.3 529,-772.23 561.17,-780.11 596.02,-791.06 625.82,-801.2"/>
<polygon fill="black" stroke="black" points="624.71,-804.52 635.31,-804.46 626.99,-797.9 624.71,-804.52"/>
</g>
<!-- library.domain.model.reservation.rule.ReservationRestriction&#45;&gt;library.domain.model.member.Member -->
<g id="edge13" class="edge">
<title>library.domain.model.reservation.rule.ReservationRestriction&#45;&gt;library.domain.model.member.Member</title>
<path fill="none" stroke="black" d="M207.02,-390.01C241.9,-386.04 281.61,-381.5 315.76,-377.61"/>
<polygon fill="black" stroke="black" points="316.16,-381.09 325.7,-376.48 315.37,-374.13 316.16,-381.09"/>
</g>
<!-- library.domain.model.reservation.wait.ReservationWithWaitingOrder -->
<g id="node21" class="node">
<title>library.domain.model.reservation.wait.ReservationWithWaitingOrder</title>
<g id="a_node21"><a xlink:href="./domain.html#library.domain.model.reservation.wait.ReservationWithWaitingOrder" xlink:title="貸出予約と待ち順番\nReservationWithWaitingOrder">
<polygon fill="lemonchiffon" stroke="black" points="233,-284.23 0,-284.23 0,-246.23 233,-246.23 233,-284.23"/>
<text text-anchor="middle" x="116.5" y="-269.03" font-family="Times,serif" font-size="14.00">貸出予約と待ち順番</text>
<text text-anchor="middle" x="116.5" y="-254.03" font-family="Times,serif" font-size="14.00">ReservationWithWaitingOrder</text>
</a>
</g>
</g>
<!-- library.domain.model.reservation.wait.ReservationWithWaitingOrder&#45;&gt;library.domain.model.material.entry.Entry -->
<g id="edge25" class="edge">
<title>library.domain.model.reservation.wait.ReservationWithWaitingOrder&#45;&gt;library.domain.model.material.entry.Entry</title>
<path fill="none" stroke="black" d="M191.66,-284.24C207.61,-291.7 222.73,-302.01 233,-316.23 282.01,-384.1 211.28,-630.59 269,-691.23 309.26,-733.52 473.85,-710.03 529,-729.23 567.79,-742.73 607.71,-765.26 639.21,-785.42"/>
<polygon fill="black" stroke="black" points="637.57,-788.53 647.86,-791.03 641.38,-782.65 637.57,-788.53"/>
</g>
<!-- library.domain.model.reservation.wait.ReservationWithWaitingOrder&#45;&gt;library.domain.model.material.entry.EntryNumber -->
<g id="edge35" class="edge">
<title>library.domain.model.reservation.wait.ReservationWithWaitingOrder&#45;&gt;library.domain.model.material.entry.EntryNumber</title>
<path fill="none" stroke="black" d="M173.01,-246.2C192.53,-238.59 214.25,-229.05 233,-218.23 250.55,-208.09 249.83,-196.81 269,-190.23 378.3,-152.73 414.87,-172.16 529,-190.23 671.15,-212.73 722.75,-202.7 837,-290.23 899.49,-338.1 943.54,-420.24 966.69,-471.77"/>
<polygon fill="black" stroke="black" points="963.53,-473.28 970.77,-481.02 969.93,-470.46 963.53,-473.28"/>
</g>
<!-- library.domain.model.reservation.wait.ReservationWithWaitingOrder&#45;&gt;library.domain.model.member.Member -->
<g id="edge14" class="edge">
<title>library.domain.model.reservation.wait.ReservationWithWaitingOrder&#45;&gt;library.domain.model.member.Member</title>
<path fill="none" stroke="black" d="M169.27,-284.24C210.45,-299.36 268.81,-320.79 316.27,-338.22"/>
<polygon fill="black" stroke="black" points="315.33,-341.6 325.92,-341.76 317.74,-335.03 315.33,-341.6"/>
</g>
<!-- library.domain.model.reservation.wait.ReservationWithWaitingOrder&#45;&gt;library.domain.model.member.MemberNumber -->
<g id="edge7" class="edge">
<title>library.domain.model.reservation.wait.ReservationWithWaitingOrder&#45;&gt;library.domain.model.member.MemberNumber</title>
<path fill="none" stroke="black" d="M233.27,-278.72C315.75,-288.4 429.22,-301.87 529,-314.23 537.33,-315.26 545.88,-316.33 554.51,-317.41"/>
<polygon fill="black" stroke="black" points="554.31,-320.92 564.67,-318.7 555.19,-313.97 554.31,-320.92"/>
</g>
<!-- library.domain.model.reservation.wait.ReservationWithWaitingOrderList -->
<g id="node22" class="node">
<title>library.domain.model.reservation.wait.ReservationWithWaitingOrderList</title>
<g id="a_node22"><a xlink:href="./domain.html#library.domain.model.reservation.wait.ReservationWithWaitingOrderList" xlink:title="待ち順番と貸出予約リスト\nReservationWithWaitingOrderList">
<polygon fill="lemonchiffon" stroke="black" points="529,-931.23 269,-931.23 269,-893.23 529,-893.23 529,-931.23"/>
<text text-anchor="middle" x="399" y="-916.03" font-family="Times,serif" font-size="14.00">待ち順番と貸出予約リスト</text>
<text text-anchor="middle" x="399" y="-901.03" font-family="Times,serif" font-size="14.00">ReservationWithWaitingOrderList</text>
</a>
</g>
</g>
<!-- library.domain.model.reservation.wait.ReservationWithWaitingOrderList&#45;&gt;library.domain.model.material.entry.Entry -->
<g id="edge26" class="edge">
<title>library.domain.model.reservation.wait.ReservationWithWaitingOrderList&#45;&gt;library.domain.model.material.entry.Entry</title>
<path fill="none" stroke="black" d="M493.29,-893.17C505.35,-890.36 517.5,-887.35 529,-884.23 560.96,-875.55 595.78,-864.45 625.61,-854.43"/>
<polygon fill="black" stroke="black" points="626.76,-857.74 635.11,-851.22 624.51,-851.11 626.76,-857.74"/>
</g>
<!-- library.domain.model.retention.MaterialMatching -->
<g id="node23" class="node">
<title>library.domain.model.retention.MaterialMatching</title>
<g id="a_node23"><a xlink:href="./domain.html#library.domain.model.retention.MaterialMatching" xlink:title="所蔵品と本の照合結果\nMaterialMatching">
<polygon fill="lemonchiffon" stroke="black" points="478.5,-875.23 319.5,-875.23 319.5,-837.23 478.5,-837.23 478.5,-875.23"/>
<text text-anchor="middle" x="399" y="-860.03" font-family="Times,serif" font-size="14.00">所蔵品と本の照合結果</text>
<text text-anchor="middle" x="399" y="-845.03" font-family="Times,serif" font-size="14.00">MaterialMatching</text>
</a>
</g>
</g>
<!-- library.domain.model.retention.MaterialMatching&#45;&gt;library.domain.model.material.entry.Entry -->
<g id="edge27" class="edge">
<title>library.domain.model.retention.MaterialMatching&#45;&gt;library.domain.model.material.entry.Entry</title>
<path fill="none" stroke="black" d="M478.82,-848.87C524.08,-844.65 580.59,-839.37 625.16,-835.21"/>
<polygon fill="black" stroke="black" points="625.72,-838.68 635.35,-834.26 625.07,-831.71 625.72,-838.68"/>
</g>
<!-- library.domain.model.retention.Retained -->
<g id="node24" class="node">
<title>library.domain.model.retention.Retained</title>
<g id="a_node24"><a xlink:href="./domain.html#library.domain.model.retention.Retained" xlink:title="取置資料\nRetained">
<polygon fill="lemonchiffon" stroke="black" points="156.5,-897.23 76.5,-897.23 76.5,-859.23 156.5,-859.23 156.5,-897.23"/>
<text text-anchor="middle" x="116.5" y="-882.03" font-family="Times,serif" font-size="14.00">取置資料</text>
<text text-anchor="middle" x="116.5" y="-867.03" font-family="Times,serif" font-size="14.00">Retained</text>
</a>
</g>
</g>
<!-- library.domain.model.retention.Retained&#45;&gt;library.domain.model.material.entry.Entry -->
<g id="edge28" class="edge">
<title>library.domain.model.retention.Retained&#45;&gt;library.domain.model.material.entry.Entry</title>
<path fill="none" stroke="black" d="M152.7,-897.23C182.65,-912.26 227.31,-932.03 269,-940.23 382.38,-962.53 418.27,-973.26 529,-940.23 574.14,-926.76 618.45,-897.14 650.65,-871.75"/>
<polygon fill="black" stroke="black" points="652.96,-874.38 658.57,-865.39 648.58,-868.92 652.96,-874.38"/>
</g>
<!-- library.domain.model.retention.Retained&#45;&gt;library.domain.model.material.item.Item -->
<g id="edge42" class="edge">
<title>library.domain.model.retention.Retained&#45;&gt;library.domain.model.material.item.Item</title>
<path fill="none" stroke="black" d="M144.53,-897.31C174.17,-917.72 223.57,-950.25 269,-973.23 288.66,-983.17 310.75,-992.53 331.02,-1000.44"/>
<polygon fill="black" stroke="black" points="329.91,-1003.76 340.5,-1004.08 332.42,-997.23 329.91,-1003.76"/>
</g>
<!-- library.domain.model.retention.Retained&#45;&gt;library.domain.model.member.Member -->
<g id="edge15" class="edge">
<title>library.domain.model.retention.Retained&#45;&gt;library.domain.model.member.Member</title>
<path fill="none" stroke="black" d="M129.06,-859.17C152.27,-820.1 204.71,-727.48 233,-643.23 259.81,-563.41 222.92,-527.7 269,-457.23 281.27,-438.47 299,-422.56 317.4,-409.62"/>
<polygon fill="black" stroke="black" points="319.57,-412.38 325.89,-403.88 315.65,-406.58 319.57,-412.38"/>
</g>
<!-- library.domain.model.retention.Retained&#45;&gt;library.domain.model.member.MemberNumber -->
<g id="edge8" class="edge">
<title>library.domain.model.retention.Retained&#45;&gt;library.domain.model.member.MemberNumber</title>
<path fill="none" stroke="black" d="M128.78,-859.07C151.48,-819.82 203.03,-726.9 233,-643.23 256.56,-577.46 217.97,-537.94 269,-490.23 354.56,-410.24 419.79,-489.56 529,-447.23 571.11,-430.9 613.72,-403.28 645.88,-379.67"/>
<polygon fill="black" stroke="black" points="648.3,-382.22 654.24,-373.45 644.13,-376.61 648.3,-382.22"/>
</g>
</g>
</svg>
