<?xml version="1.0" encoding="UTF-8" standalone="no"?>
<!DOCTYPE svg PUBLIC "-//W3C//DTD SVG 1.1//EN"
 "http://www.w3.org/Graphics/SVG/1.1/DTD/svg11.dtd">
<!-- Generated by graphviz version 2.43.0 (0)
 -->
<!-- Title: CategoryDiagram Pages: 1 -->
<svg width="1515pt" height="1011pt"
 viewBox="0.00 0.00 1515.00 1011.00" xmlns="http://www.w3.org/2000/svg" xmlns:xlink="http://www.w3.org/1999/xlink">
<g id="graph0" class="graph" transform="scale(1 1) rotate(0) translate(4 984)">
<title>CategoryDiagram</title>
<polygon fill="white" stroke="transparent" points="-4,27 -4,-984 1511,-984 1511,27 -4,27"/>
<text text-anchor="middle" x="753.5" y="15.2" font-family="Times,serif" font-size="14.00">CategoryDiagram</text>
<g id="clust1" class="cluster">
<title>cluster_library.domain.model.retention</title>
<polygon fill="none" stroke="lightgray" points="219.74,-792.14 219.74,-915.14 398.74,-915.14 398.74,-792.14 219.74,-792.14"/>
<text text-anchor="middle" x="309.24" y="-899.94" font-family="Times,serif" font-size="14.00">retention</text>
</g>
<g id="clust2" class="cluster">
<title>cluster_library.domain.model.material</title>
<polygon fill="none" stroke="lightgray" points="836.24,-572.14 836.24,-899.14 1124.24,-899.14 1124.24,-572.14 836.24,-572.14"/>
<text text-anchor="middle" x="980.24" y="-883.94" font-family="Times,serif" font-size="14.00">material</text>
</g>
<g id="clust3" class="cluster">
<title>cluster_library.domain.model.material.entry</title>
<polygon fill="none" stroke="lightgray" points="994.48,-595.28 994.48,-718.28 1116.48,-718.28 1116.48,-595.28 994.48,-595.28"/>
<text text-anchor="middle" x="1055.48" y="-703.08" font-family="Times,serif" font-size="14.00">entry</text>
</g>
<g id="clust4" class="cluster">
<title>cluster_library.domain.model.material.item</title>
<polygon fill="none" stroke="lightgray" points="844.48,-580.28 844.48,-787.28 966.48,-787.28 966.48,-580.28 844.48,-580.28"/>
<text text-anchor="middle" x="905.48" y="-772.08" font-family="Times,serif" font-size="14.00">item</text>
</g>
<g id="clust5" class="cluster">
<title>cluster_library.domain.model.material.instock</title>
<polygon fill="none" stroke="lightgray" points="994.48,-745.28 994.48,-868.28 1090.48,-868.28 1090.48,-745.28 994.48,-745.28"/>
<text text-anchor="middle" x="1042.48" y="-853.08" font-family="Times,serif" font-size="14.00">instock</text>
</g>
<g id="clust6" class="cluster">
<title>cluster_library.domain.model.reservation</title>
<polygon fill="none" stroke="lightgray" points="835.74,-0.14 835.74,-487.14 1506.74,-487.14 1506.74,-0.14 835.74,-0.14"/>
<text text-anchor="middle" x="1171.24" y="-471.94" font-family="Times,serif" font-size="14.00">reservation</text>
</g>
<g id="clust7" class="cluster">
<title>cluster_library.domain.model.reservation.availability</title>
<polygon fill="none" stroke="lightgray" points="843.48,-8.28 843.48,-291.28 1222.48,-291.28 1222.48,-8.28 843.48,-8.28"/>
<text text-anchor="middle" x="1032.98" y="-276.08" font-family="Times,serif" font-size="14.00">availability</text>
</g>
<g id="clust8" class="cluster">
<title>cluster_library.domain.model.reservation.rule</title>
<polygon fill="none" stroke="lightgray" points="1218.98,-333.28 1218.98,-456.28 1498.98,-456.28 1498.98,-333.28 1218.98,-333.28"/>
<text text-anchor="middle" x="1358.98" y="-441.08" font-family="Times,serif" font-size="14.00">rule</text>
</g>
<g id="clust9" class="cluster">
<title>cluster_library.domain.model.delay</title>
<polygon fill="none" stroke="lightgray" points="-0.26,-835.64 -0.26,-979.64 166.74,-979.64 166.74,-835.64 -0.26,-835.64"/>
<text text-anchor="middle" x="83.24" y="-964.44" font-family="Times,serif" font-size="14.00">delay</text>
</g>
<g id="clust10" class="cluster">
<title>cluster_library.domain.model.loan</title>
<polygon fill="none" stroke="lightgray" points="87.74,-43.64 87.74,-699.64 780.74,-699.64 780.74,-43.64 87.74,-43.64"/>
<text text-anchor="middle" x="434.24" y="-684.44" font-family="Times,serif" font-size="14.00">loan</text>
</g>
<g id="clust11" class="cluster">
<title>cluster_library.domain.model.loan.rule</title>
<polygon fill="none" stroke="lightgray" points="95.98,-51.78 95.98,-480.78 611.98,-480.78 611.98,-51.78 95.98,-51.78"/>
<text text-anchor="middle" x="353.98" y="-465.58" font-family="Times,serif" font-size="14.00">rule</text>
</g>
<g id="clust12" class="cluster">
<title>cluster_library.domain.model.loan.due</title>
<polygon fill="none" stroke="lightgray" points="627.48,-545.78 627.48,-668.78 772.48,-668.78 772.48,-545.78 627.48,-545.78"/>
<text text-anchor="middle" x="699.98" y="-653.58" font-family="Times,serif" font-size="14.00">due</text>
</g>
<g id="clust13" class="cluster">
<title>cluster_library.domain.model.member</title>
<polygon fill="none" stroke="lightgray" points="483.74,-791.64 483.74,-947.64 758.74,-947.64 758.74,-791.64 483.74,-791.64"/>
<text text-anchor="middle" x="621.24" y="-932.44" font-family="Times,serif" font-size="14.00">member</text>
</g>
<!-- library.domain.model.retention.MaterialMatching -->
<g id="node1" class="node">
<title>library.domain.model.retention.MaterialMatching</title>
<g id="a_node1"><a xlink:href="./enum.html#library.domain.model.retention.MaterialMatching" xlink:title="&lt;TABLE&gt;">
<polygon fill="#eedd82" stroke="black" points="390.48,-883.78 227.48,-883.78 227.48,-799.78 390.48,-799.78 390.48,-883.78"/>
<text text-anchor="start" x="237.98" y="-866.58" font-family="Times,serif" font-size="14.00">所蔵品と本の照合結果</text>
<text text-anchor="start" x="244.98" y="-851.58" font-family="Times,serif" font-size="14.00">MaterialMatching</text>
<polygon fill="none" stroke="black" points="235.98,-824.78 235.98,-845.78 382.98,-845.78 382.98,-824.78 235.98,-824.78"/>
<text text-anchor="start" x="294.98" y="-831.58" font-family="Times,serif" font-size="14.00">一致</text>
<polygon fill="none" stroke="black" points="235.98,-803.78 235.98,-824.78 382.98,-824.78 382.98,-803.78 235.98,-803.78"/>
<text text-anchor="start" x="287.98" y="-810.58" font-family="Times,serif" font-size="14.00">不一致</text>
</a>
</g>
</g>
<!-- library.domain.model.material.entry.EntryType -->
<g id="node2" class="node">
<title>library.domain.model.material.entry.EntryType</title>
<g id="a_node2"><a xlink:href="./enum.html#library.domain.model.material.entry.EntryType" xlink:title="&lt;TABLE&gt;">
<polygon fill="lemonchiffon" stroke="black" points="1108.71,-686.92 1002.71,-686.92 1002.71,-602.92 1108.71,-602.92 1108.71,-686.92"/>
<text text-anchor="start" x="1012.71" y="-669.72" font-family="Times,serif" font-size="14.00">所蔵品目種別</text>
<text text-anchor="start" x="1017.71" y="-654.72" font-family="Times,serif" font-size="14.00">EntryType</text>
<polygon fill="none" stroke="black" points="1010.71,-627.92 1010.71,-648.92 1100.71,-648.92 1100.71,-627.92 1010.71,-627.92"/>
<text text-anchor="start" x="1041.21" y="-634.72" font-family="Times,serif" font-size="14.00">図書</text>
<polygon fill="none" stroke="black" points="1010.71,-606.92 1010.71,-627.92 1100.71,-627.92 1100.71,-606.92 1010.71,-606.92"/>
<text text-anchor="start" x="1019.71" y="-613.72" font-family="Times,serif" font-size="14.00">視聴覚資料</text>
</a>
</g>
</g>
<!-- library.domain.model.material.item.ItemStatus -->
<g id="node3" class="node">
<title>library.domain.model.material.item.ItemStatus</title>
<g id="a_node3"><a xlink:href="./enum.html#library.domain.model.material.item.ItemStatus" xlink:title="&lt;TABLE&gt;">
<polygon fill="#eedd82" stroke="black" points="958.71,-755.92 852.71,-755.92 852.71,-587.92 958.71,-587.92 958.71,-755.92"/>
<text text-anchor="start" x="862.71" y="-738.72" font-family="Times,serif" font-size="14.00">所蔵品の状態</text>
<text text-anchor="start" x="865.71" y="-723.72" font-family="Times,serif" font-size="14.00">ItemStatus</text>
<polygon fill="none" stroke="black" points="860.71,-696.92 860.71,-717.92 950.71,-717.92 950.71,-696.92 860.71,-696.92"/>
<text text-anchor="start" x="884.21" y="-703.72" font-family="Times,serif" font-size="14.00">未登録</text>
<polygon fill="none" stroke="black" points="860.71,-675.92 860.71,-696.92 950.71,-696.92 950.71,-675.92 860.71,-675.92"/>
<text text-anchor="start" x="884.21" y="-682.72" font-family="Times,serif" font-size="14.00">在庫中</text>
<polygon fill="none" stroke="black" points="860.71,-654.92 860.71,-675.92 950.71,-675.92 950.71,-654.92 860.71,-654.92"/>
<text text-anchor="start" x="884.21" y="-661.72" font-family="Times,serif" font-size="14.00">予約中</text>
<polygon fill="none" stroke="black" points="860.71,-633.92 860.71,-654.92 950.71,-654.92 950.71,-633.92 860.71,-633.92"/>
<text text-anchor="start" x="884.21" y="-640.72" font-family="Times,serif" font-size="14.00">取置中</text>
<polygon fill="none" stroke="black" points="860.71,-612.92 860.71,-633.92 950.71,-633.92 950.71,-612.92 860.71,-612.92"/>
<text text-anchor="start" x="884.21" y="-619.72" font-family="Times,serif" font-size="14.00">貸出中</text>
<polygon fill="none" stroke="black" points="860.71,-591.92 860.71,-612.92 950.71,-612.92 950.71,-591.92 860.71,-591.92"/>
<text text-anchor="start" x="884.21" y="-598.72" font-family="Times,serif" font-size="14.00">その他</text>
</a>
</g>
</g>
<!-- library.domain.model.material.instock.InStock -->
<g id="node4" class="node">
<title>library.domain.model.material.instock.InStock</title>
<g id="a_node4"><a xlink:href="./enum.html#library.domain.model.material.instock.InStock" xlink:title="&lt;TABLE&gt;">
<polygon fill="#eedd82" stroke="black" points="1082.71,-836.92 1002.71,-836.92 1002.71,-752.92 1082.71,-752.92 1082.71,-836.92"/>
<text text-anchor="start" x="1013.71" y="-819.72" font-family="Times,serif" font-size="14.00">在庫有無</text>
<text text-anchor="start" x="1015.21" y="-804.72" font-family="Times,serif" font-size="14.00">InStock</text>
<polygon fill="none" stroke="black" points="1010.71,-777.92 1010.71,-798.92 1074.71,-798.92 1074.71,-777.92 1010.71,-777.92"/>
<text text-anchor="start" x="1013.71" y="-784.72" font-family="Times,serif" font-size="14.00">在庫あり</text>
<polygon fill="none" stroke="black" points="1010.71,-756.92 1010.71,-777.92 1074.71,-777.92 1074.71,-756.92 1010.71,-756.92"/>
<text text-anchor="start" x="1013.71" y="-763.72" font-family="Times,serif" font-size="14.00">在庫なし</text>
</a>
</g>
</g>
<!-- library.domain.model.reservation.ReservationStatus -->
<g id="node5" class="node">
<title>library.domain.model.reservation.ReservationStatus</title>
<g id="a_node5"><a xlink:href="./enum.html#library.domain.model.reservation.ReservationStatus" xlink:title="&lt;TABLE&gt;">
<polygon fill="lemonchiffon" stroke="black" points="1171.48,-416.78 1018.48,-416.78 1018.48,-332.78 1171.48,-332.78 1171.48,-416.78"/>
<text text-anchor="start" x="1059.48" y="-399.58" font-family="Times,serif" font-size="14.00">予約の状態</text>
<text text-anchor="start" x="1028.98" y="-384.58" font-family="Times,serif" font-size="14.00">ReservationStatus</text>
<polygon fill="none" stroke="black" points="1026.98,-357.78 1026.98,-378.78 1163.98,-378.78 1163.98,-357.78 1026.98,-357.78"/>
<text text-anchor="start" x="1073.98" y="-364.58" font-family="Times,serif" font-size="14.00">未準備</text>
<polygon fill="none" stroke="black" points="1026.98,-336.78 1026.98,-357.78 1163.98,-357.78 1163.98,-336.78 1026.98,-336.78"/>
<text text-anchor="start" x="1073.98" y="-343.58" font-family="Times,serif" font-size="14.00">消込済</text>
</a>
</g>
</g>
<!-- library.domain.model.reservation.availability.RetentionAvailability -->
<g id="node6" class="node">
<title>library.domain.model.reservation.availability.RetentionAvailability</title>
<g id="a_node6"><a xlink:href="./enum.html#library.domain.model.reservation.availability.RetentionAvailability" xlink:title="&lt;TABLE&gt;">
<polygon fill="lemonchiffon" stroke="black" points="1214.21,-259.92 1043.21,-259.92 1043.21,-175.92 1214.21,-175.92 1214.21,-259.92"/>
<text text-anchor="start" x="1100.21" y="-242.72" font-family="Times,serif" font-size="14.00">取置可否</text>
<text text-anchor="start" x="1053.71" y="-227.72" font-family="Times,serif" font-size="14.00">RetentionAvailability</text>
<polygon fill="none" stroke="black" points="1051.71,-200.92 1051.71,-221.92 1206.71,-221.92 1206.71,-200.92 1051.71,-200.92"/>
<text text-anchor="start" x="1100.21" y="-207.72" font-family="Times,serif" font-size="14.00">取置可能</text>
<polygon fill="none" stroke="black" points="1051.71,-179.92 1051.71,-200.92 1206.71,-200.92 1206.71,-179.92 1051.71,-179.92"/>
<text text-anchor="start" x="1100.21" y="-186.72" font-family="Times,serif" font-size="14.00">取置不可</text>
</a>
</g>
</g>
<!-- library.domain.model.reservation.availability.ReservationAvailability -->
<g id="node7" class="node">
<title>library.domain.model.reservation.availability.ReservationAvailability</title>
<g id="a_node7"><a xlink:href="./enum.html#library.domain.model.reservation.availability.ReservationAvailability" xlink:title="&lt;TABLE&gt;">
<polygon fill="lemonchiffon" stroke="black" points="1037.71,-141.92 851.71,-141.92 851.71,-15.92 1037.71,-15.92 1037.71,-141.92"/>
<text text-anchor="start" x="915.71" y="-124.72" font-family="Times,serif" font-size="14.00">予約可否</text>
<text text-anchor="start" x="861.71" y="-109.72" font-family="Times,serif" font-size="14.00">ReservationAvailability</text>
<polygon fill="none" stroke="black" points="859.71,-82.92 859.71,-103.92 1029.71,-103.92 1029.71,-82.92 859.71,-82.92"/>
<text text-anchor="start" x="866.21" y="-89.72" font-family="Times,serif" font-size="14.00">冊数制限により予約不可</text>
<polygon fill="none" stroke="black" points="859.71,-61.92 859.71,-82.92 1029.71,-82.92 1029.71,-61.92 859.71,-61.92"/>
<text text-anchor="start" x="880.21" y="-68.72" font-family="Times,serif" font-size="14.00">視聴覚資料予約不可</text>
<polygon fill="none" stroke="black" points="859.71,-40.92 859.71,-61.92 1029.71,-61.92 1029.71,-40.92 859.71,-40.92"/>
<text text-anchor="start" x="887.21" y="-47.72" font-family="Times,serif" font-size="14.00">予約一定期間停止</text>
<polygon fill="none" stroke="black" points="859.71,-19.92 859.71,-40.92 1029.71,-40.92 1029.71,-19.92 859.71,-19.92"/>
<text text-anchor="start" x="915.71" y="-26.72" font-family="Times,serif" font-size="14.00">予約可能</text>
</a>
</g>
</g>
<!-- library.domain.model.reservation.rule.RestrictionOfReservationQuantity -->
<g id="node8" class="node">
<title>library.domain.model.reservation.rule.RestrictionOfReservationQuantity</title>
<g id="a_node8"><a xlink:href="./enum.html#library.domain.model.reservation.rule.RestrictionOfReservationQuantity" xlink:title="&lt;TABLE&gt;">
<polygon fill="lemonchiffon" stroke="black" points="1491.21,-424.92 1227.21,-424.92 1227.21,-340.92 1491.21,-340.92 1491.21,-424.92"/>
<text text-anchor="start" x="1330.21" y="-407.72" font-family="Times,serif" font-size="14.00">予約制限</text>
<text text-anchor="start" x="1237.21" y="-392.72" font-family="Times,serif" font-size="14.00">RestrictionOfReservationQuantity</text>
<polygon fill="none" stroke="black" points="1235.21,-365.92 1235.21,-386.92 1483.21,-386.92 1483.21,-365.92 1235.21,-365.92"/>
<text text-anchor="start" x="1294.71" y="-372.72" font-family="Times,serif" font-size="14.00">予約点数まで貸出可</text>
<polygon fill="none" stroke="black" points="1235.21,-344.92 1235.21,-365.92 1483.21,-365.92 1483.21,-344.92 1235.21,-344.92"/>
<text text-anchor="start" x="1330.21" y="-351.72" font-family="Times,serif" font-size="14.00">予約停止</text>
</a>
</g>
</g>
<!-- library.domain.model.delay.DelayStatus -->
<g id="node9" class="node">
<title>library.domain.model.delay.DelayStatus</title>
<g id="a_node9"><a xlink:href="./enum.html#library.domain.model.delay.DelayStatus" xlink:title="&lt;TABLE&gt;">
<polygon fill="lemonchiffon" stroke="black" points="158.48,-948.78 7.48,-948.78 7.48,-843.78 158.48,-843.78 158.48,-948.78"/>
<text text-anchor="start" x="54.48" y="-931.08" font-family="Times,serif" font-size="14.00">遅延状態</text>
<text text-anchor="start" x="39.48" y="-916.08" font-family="Times,serif" font-size="14.00">DelayStatus</text>
<polygon fill="none" stroke="black" points="15.98,-889.28 15.98,-910.28 150.98,-910.28 150.98,-889.28 15.98,-889.28"/>
<text text-anchor="start" x="18.98" y="-896.08" font-family="Times,serif" font-size="14.00">遅延日数１５日未満</text>
<polygon fill="none" stroke="black" points="15.98,-868.28 15.98,-889.28 150.98,-889.28 150.98,-868.28 15.98,-868.28"/>
<text text-anchor="start" x="18.98" y="-875.08" font-family="Times,serif" font-size="14.00">遅延日数２ヶ月未満</text>
<polygon fill="none" stroke="black" points="15.98,-847.28 15.98,-868.28 150.98,-868.28 150.98,-847.28 15.98,-847.28"/>
<text text-anchor="start" x="18.98" y="-854.08" font-family="Times,serif" font-size="14.00">遅延日数２ヶ月以上</text>
</a>
</g>
</g>
<!-- library.domain.model.loan.rule.RestrictionOfDelay -->
<g id="node10" class="node">
<title>library.domain.model.loan.rule.RestrictionOfDelay</title>
<g id="a_node10"><a xlink:href="./enum.html#library.domain.model.loan.rule.RestrictionOfDelay" xlink:title="&lt;TABLE&gt;">
<polygon fill="greenyellow" stroke="black" points="377.71,-249.92 154.71,-249.92 154.71,-144.92 377.71,-144.92 377.71,-249.92"/>
<text text-anchor="start" x="165.21" y="-232.22" font-family="Times,serif" font-size="14.00">*遅延状態による制限(判定結果)</text>
<text text-anchor="start" x="198.71" y="-217.22" font-family="Times,serif" font-size="14.00">RestrictionOfDelay</text>
<polygon fill="none" stroke="black" points="163.21,-190.42 163.21,-211.42 370.21,-211.42 370.21,-190.42 163.21,-190.42"/>
<text text-anchor="start" x="237.71" y="-197.22" font-family="Times,serif" font-size="14.00">貸出可能</text>
<polygon fill="none" stroke="black" points="163.21,-169.42 163.21,-190.42 370.21,-190.42 370.21,-169.42 163.21,-169.42"/>
<text text-anchor="start" x="223.71" y="-176.22" font-family="Times,serif" font-size="14.00">新規貸出不可</text>
<polygon fill="none" stroke="black" points="163.21,-148.42 163.21,-169.42 370.21,-169.42 370.21,-148.42 163.21,-148.42"/>
<text text-anchor="start" x="237.71" y="-155.22" font-family="Times,serif" font-size="14.00">貸出停止</text>
</a>
</g>
</g>
<!-- library.domain.model.loan.rule.Loanability -->
<g id="node11" class="node">
<title>library.domain.model.loan.rule.Loanability</title>
<g id="a_node11"><a xlink:href="./enum.html#library.domain.model.loan.rule.Loanability" xlink:title="&lt;TABLE&gt;">
<polygon fill="#eedd82" stroke="black" points="537.71,-427.92 358.71,-427.92 358.71,-280.92 537.71,-280.92 537.71,-427.92"/>
<text text-anchor="start" x="419.71" y="-410.22" font-family="Times,serif" font-size="14.00">貸出可否</text>
<text text-anchor="start" x="408.71" y="-395.22" font-family="Times,serif" font-size="14.00">Loanability</text>
<polygon fill="none" stroke="black" points="367.21,-368.42 367.21,-389.42 530.21,-389.42 530.21,-368.42 367.21,-368.42"/>
<text text-anchor="start" x="370.21" y="-375.22" font-family="Times,serif" font-size="14.00">冊数制限により貸出不可</text>
<polygon fill="none" stroke="black" points="367.21,-347.42 367.21,-368.42 530.21,-368.42 530.21,-347.42 367.21,-347.42"/>
<text text-anchor="start" x="384.21" y="-354.22" font-family="Times,serif" font-size="14.00">視聴覚資料貸出不可</text>
<polygon fill="none" stroke="black" points="367.21,-326.42 367.21,-347.42 530.21,-347.42 530.21,-326.42 367.21,-326.42"/>
<text text-anchor="start" x="405.71" y="-333.22" font-family="Times,serif" font-size="14.00">新規貸出不可</text>
<polygon fill="none" stroke="black" points="367.21,-305.42 367.21,-326.42 530.21,-326.42 530.21,-305.42 367.21,-305.42"/>
<text text-anchor="start" x="391.21" y="-312.22" font-family="Times,serif" font-size="14.00">貸出一定期間停止</text>
<polygon fill="none" stroke="black" points="367.21,-284.42 367.21,-305.42 530.21,-305.42 530.21,-284.42 367.21,-284.42"/>
<text text-anchor="start" x="419.71" y="-291.22" font-family="Times,serif" font-size="14.00">貸出可能</text>
</a>
</g>
</g>
<!-- library.domain.model.loan.rule.ItemLoanability -->
<g id="node12" class="node">
<title>library.domain.model.loan.rule.ItemLoanability</title>
<g id="a_node12"><a xlink:href="./enum.html#library.domain.model.loan.rule.ItemLoanability" xlink:title="&lt;TABLE&gt;">
<polygon fill="#eedd82" stroke="black" points="604.21,-185.42 410.21,-185.42 410.21,-59.42 604.21,-59.42 604.21,-185.42"/>
<text text-anchor="start" x="449.71" y="-168.22" font-family="Times,serif" font-size="14.00">所蔵品の貸出可否</text>
<text text-anchor="start" x="450.71" y="-153.22" font-family="Times,serif" font-size="14.00">ItemLoanability</text>
<polygon fill="none" stroke="black" points="418.21,-126.42 418.21,-147.42 596.21,-147.42 596.21,-126.42 418.21,-126.42"/>
<text text-anchor="start" x="478.21" y="-133.22" font-family="Times,serif" font-size="14.00">貸出可能</text>
<polygon fill="none" stroke="black" points="418.21,-105.42 418.21,-126.42 596.21,-126.42 596.21,-105.42 418.21,-105.42"/>
<text text-anchor="start" x="428.71" y="-112.22" font-family="Times,serif" font-size="14.00">貸出中により貸出不可能</text>
<polygon fill="none" stroke="black" points="418.21,-84.42 418.21,-105.42 596.21,-105.42 596.21,-84.42 418.21,-84.42"/>
<text text-anchor="start" x="428.71" y="-91.22" font-family="Times,serif" font-size="14.00">予約中により貸出不可能</text>
<polygon fill="none" stroke="black" points="418.21,-63.42 418.21,-84.42 596.21,-84.42 596.21,-63.42 418.21,-63.42"/>
<text text-anchor="start" x="421.21" y="-70.22" font-family="Times,serif" font-size="14.00">その他の理由で貸出不可能</text>
</a>
</g>
</g>
<!-- library.domain.model.loan.rule.RestrictionOfQuantity -->
<g id="node13" class="node">
<title>library.domain.model.loan.rule.RestrictionOfQuantity</title>
<g id="a_node13"><a xlink:href="./enum.html#library.domain.model.loan.rule.RestrictionOfQuantity" xlink:title="&lt;TABLE&gt;">
<polygon fill="greenyellow" stroke="black" points="328.21,-449.42 104.21,-449.42 104.21,-365.42 328.21,-365.42 328.21,-449.42"/>
<text text-anchor="start" x="162.71" y="-432.22" font-family="Times,serif" font-size="14.00">*貸出点数の制限</text>
<text text-anchor="start" x="137.21" y="-417.22" font-family="Times,serif" font-size="14.00">RestrictionOfQuantity</text>
<polygon fill="none" stroke="black" points="112.21,-390.42 112.21,-411.42 320.21,-411.42 320.21,-390.42 112.21,-390.42"/>
<text text-anchor="start" x="115.21" y="-397.22" font-family="Times,serif" font-size="14.00">貸出１５点_視聴覚資料5点まで</text>
<polygon fill="none" stroke="black" points="112.21,-369.42 112.21,-390.42 320.21,-390.42 320.21,-369.42 112.21,-369.42"/>
<text text-anchor="start" x="115.21" y="-376.22" font-family="Times,serif" font-size="14.00">貸出２０点_視聴覚資料5点まで</text>
</a>
</g>
</g>
<!-- library.domain.model.loan.due.DueDateStatus -->
<g id="node14" class="node">
<title>library.domain.model.loan.due.DueDateStatus</title>
<g id="a_node14"><a xlink:href="./enum.html#library.domain.model.loan.due.DueDateStatus" xlink:title="&lt;TABLE&gt;">
<polygon fill="greenyellow" stroke="black" points="764.21,-637.42 635.21,-637.42 635.21,-553.42 764.21,-553.42 764.21,-637.42"/>
<text text-anchor="start" x="653.71" y="-620.22" font-family="Times,serif" font-size="14.00">*貸出期限状態</text>
<text text-anchor="start" x="645.71" y="-605.22" font-family="Times,serif" font-size="14.00">DueDateStatus</text>
<polygon fill="none" stroke="black" points="643.71,-578.42 643.71,-599.42 756.71,-599.42 756.71,-578.42 643.71,-578.42"/>
<text text-anchor="start" x="678.71" y="-585.22" font-family="Times,serif" font-size="14.00">期限内</text>
<polygon fill="none" stroke="black" points="643.71,-557.42 643.71,-578.42 756.71,-578.42 756.71,-557.42 643.71,-557.42"/>
<text text-anchor="start" x="671.21" y="-564.22" font-family="Times,serif" font-size="14.00">期限切れ</text>
</a>
</g>
</g>
<!-- library.domain.model.member.MemberStatus -->
<g id="node15" class="node">
<title>library.domain.model.member.MemberStatus</title>
<g id="a_node15"><a xlink:href="./enum.html#library.domain.model.member.MemberStatus" xlink:title="&lt;TABLE&gt;">
<polygon fill="lemonchiffon" stroke="black" points="618.48,-916.78 491.48,-916.78 491.48,-811.78 618.48,-811.78 618.48,-916.78"/>
<text text-anchor="start" x="505.48" y="-899.08" font-family="Times,serif" font-size="14.00">会員登録の状態</text>
<text text-anchor="start" x="501.98" y="-884.08" font-family="Times,serif" font-size="14.00">MemberStatus</text>
<polygon fill="none" stroke="black" points="499.98,-857.28 499.98,-878.28 610.98,-878.28 610.98,-857.28 499.98,-857.28"/>
<text text-anchor="start" x="533.98" y="-864.08" font-family="Times,serif" font-size="14.00">未登録</text>
<polygon fill="none" stroke="black" points="499.98,-836.28 499.98,-857.28 610.98,-857.28 610.98,-836.28 499.98,-836.28"/>
<text text-anchor="start" x="540.98" y="-843.08" font-family="Times,serif" font-size="14.00">有効</text>
<polygon fill="none" stroke="black" points="499.98,-815.28 499.98,-836.28 610.98,-836.28 610.98,-815.28 499.98,-815.28"/>
<text text-anchor="start" x="540.98" y="-822.08" font-family="Times,serif" font-size="14.00">無効</text>
</a>
</g>
</g>
<!-- library.domain.model.member.MemberType -->
<g id="node16" class="node">
<title>library.domain.model.member.MemberType</title>
<g id="a_node16"><a xlink:href="./enum.html#library.domain.model.member.MemberType" xlink:title="&lt;TABLE&gt;">
<polygon fill="lemonchiffon" stroke="black" points="750.48,-883.28 635.48,-883.28 635.48,-799.28 750.48,-799.28 750.48,-883.28"/>
<text text-anchor="start" x="664.48" y="-866.08" font-family="Times,serif" font-size="14.00">会員種別</text>
<text text-anchor="start" x="645.98" y="-851.08" font-family="Times,serif" font-size="14.00">MemberType</text>
<polygon fill="none" stroke="black" points="643.98,-824.28 643.98,-845.28 742.98,-845.28 742.98,-824.28 643.98,-824.28"/>
<text text-anchor="start" x="657.48" y="-831.08" font-family="Times,serif" font-size="14.00">中学生以上</text>
<polygon fill="none" stroke="black" points="643.98,-803.28 643.98,-824.28 742.98,-824.28 742.98,-803.28 643.98,-803.28"/>
<text text-anchor="start" x="657.48" y="-810.08" font-family="Times,serif" font-size="14.00">小学生以下</text>
</a>
</g>
</g>
</g>
</svg>
