<?xml version="1.0" encoding="UTF-8" standalone="no"?>
<!DOCTYPE svg PUBLIC "-//W3C//DTD SVG 1.1//EN"
 "http://www.w3.org/Graphics/SVG/1.1/DTD/svg11.dtd">
<!-- Generated by graphviz version 2.43.0 (0)
 -->
<!-- Title: PackageRelationDiagram Pages: 1 -->
<svg width="358pt" height="143pt"
 viewBox="0.00 0.00 357.50 143.00" xmlns="http://www.w3.org/2000/svg" xmlns:xlink="http://www.w3.org/1999/xlink">
<g id="graph0" class="graph" transform="scale(1 1) rotate(0) translate(4 139)">
<title>PackageRelationDiagram</title>
<polygon fill="white" stroke="transparent" points="-4,4 -4,-139 353.5,-139 353.5,4 -4,4"/>
<text text-anchor="middle" x="174.75" y="-7.8" font-family="Times,serif" font-size="14.00">PackageRelationDiagram</text>
<!-- summary -->
<g id="node1" class="node">
<title>summary</title>
<polygon fill="none" stroke="black" points="95,-135 0,-135 0,-97 101,-97 101,-129 95,-135"/>
<polyline fill="none" stroke="black" points="95,-135 95,-129 "/>
<polyline fill="none" stroke="black" points="101,-129 95,-129 "/>
<text text-anchor="start" x="8" y="-119.8" font-family="Times,serif" font-size="14.00">Packages: 2</text>
<text text-anchor="start" x="8" y="-104.8" font-family="Times,serif" font-size="14.00">Relations: 1</text>
</g>
<!-- library.domain.model -->
<g id="node2" class="node">
<title>library.domain.model</title>
<g id="a_node2"><a xlink:href="./domain.html#library.domain.model" xlink:title="ビジネスルールを表現する複合型\nlibrary.domain.model">
<polygon fill="#eedd82" stroke="black" points="349.5,-135 119.5,-135 119.5,-97 349.5,-97 349.5,-135"/>
<text text-anchor="middle" x="234.5" y="-119.8" font-family="Times,serif" font-size="14.00">ビジネスルールを表現する複合型</text>
<text text-anchor="middle" x="234.5" y="-104.8" font-family="Times,serif" font-size="14.00">library.domain.model</text>
</a>
</g>
</g>
<!-- library.domain.type -->
<g id="node3" class="node">
<title>library.domain.type</title>
<g id="a_node3"><a xlink:href="./domain.html#library.domain.type" xlink:title="ビジネスルールを表現する基本型\nlibrary.domain.type">
<polygon fill="#eedd82" stroke="black" points="349.5,-61 119.5,-61 119.5,-23 349.5,-23 349.5,-61"/>
<text text-anchor="middle" x="234.5" y="-45.8" font-family="Times,serif" font-size="14.00">ビジネスルールを表現する基本型</text>
<text text-anchor="middle" x="234.5" y="-30.8" font-family="Times,serif" font-size="14.00">library.domain.type</text>
</a>
</g>
</g>
<!-- library.domain.model&#45;&gt;library.domain.type -->
<g id="edge1" class="edge">
<title>library.domain.model&#45;&gt;library.domain.type</title>
<path fill="none" stroke="black" d="M234.5,-96.83C234.5,-89.13 234.5,-79.97 234.5,-71.42"/>
<polygon fill="black" stroke="black" points="238,-71.41 234.5,-61.41 231,-71.41 238,-71.41"/>
</g>
</g>
</svg>
