<?xml version="1.0" encoding="UTF-8" standalone="no"?>
<!DOCTYPE svg PUBLIC "-//W3C//DTD SVG 1.1//EN"
 "http://www.w3.org/Graphics/SVG/1.1/DTD/svg11.dtd">
<!-- Generated by graphviz version 2.43.0 (0)
 -->
<!-- Title: PackageRelationDiagram Pages: 1 -->
<svg width="566pt" height="387pt"
 viewBox="0.00 0.00 566.00 387.00" xmlns="http://www.w3.org/2000/svg" xmlns:xlink="http://www.w3.org/1999/xlink">
<g id="graph0" class="graph" transform="scale(1 1) rotate(0) translate(4 383)">
<title>PackageRelationDiagram</title>
<polygon fill="white" stroke="transparent" points="-4,4 -4,-383 562,-383 562,4 -4,4"/>
<text text-anchor="middle" x="279" y="-7.8" font-family="Times,serif" font-size="14.00">PackageRelationDiagram</text>
<g id="clust1" class="cluster">
<title>cluster_library.domain.type</title>
<polygon fill="lemonchiffon" stroke="#eedd82" stroke-width="2" points="320,-31 320,-123 550,-123 550,-31 320,-31"/>
<text text-anchor="middle" x="435" y="-107.8" font-family="Times,serif" font-size="14.00">ビジネスルールを表現する基本型</text>
<text text-anchor="middle" x="435" y="-92.8" font-family="Times,serif" font-size="14.00">library.domain.type</text>
</g>
<g id="clust2" class="cluster">
<title>cluster_library.domain.model</title>
<polygon fill="lemonchiffon" stroke="#eedd82" stroke-width="2" points="118,-131 118,-371 442,-371 442,-131 118,-131"/>
<text text-anchor="middle" x="280" y="-355.8" font-family="Times,serif" font-size="14.00">ビジネスルールを表現する複合型</text>
<text text-anchor="middle" x="280" y="-340.8" font-family="Times,serif" font-size="14.00">library.domain.model</text>
</g>
<!-- summary -->
<g id="node1" class="node">
<title>summary</title>
<polygon fill="none" stroke="black" points="104,-325 0,-325 0,-287 110,-287 110,-319 104,-325"/>
<polyline fill="none" stroke="black" points="104,-325 104,-319 "/>
<polyline fill="none" stroke="black" points="110,-319 104,-319 "/>
<text text-anchor="start" x="8" y="-309.8" font-family="Times,serif" font-size="14.00">Packages: 8</text>
<text text-anchor="start" x="8" y="-294.8" font-family="Times,serif" font-size="14.00">Relations: 12</text>
</g>
<!-- library.domain.model.loan -->
<g id="node2" class="node">
<title>library.domain.model.loan</title>
<g id="a_node2"><a xlink:href="./domain.html#library.domain.model.loan" xlink:title="貸出\nloan">
<polygon fill="#eedd82" stroke="black" points="434,-251 380,-251 380,-213 434,-213 434,-251"/>
<text text-anchor="middle" x="407" y="-235.8" font-family="Times,serif" font-size="14.00">貸出</text>
<text text-anchor="middle" x="407" y="-220.8" font-family="Times,serif" font-size="14.00">loan</text>
</a>
</g>
</g>
<!-- library.domain.type.date -->
<g id="node3" class="node">
<title>library.domain.type.date</title>
<g id="a_node3"><a xlink:href="./domain.html#library.domain.type.date" xlink:title="日付\ndate">
<polygon fill="#eedd82" stroke="black" points="461,-77 407,-77 407,-39 461,-39 461,-77"/>
<text text-anchor="middle" x="434" y="-61.8" font-family="Times,serif" font-size="14.00">日付</text>
<text text-anchor="middle" x="434" y="-46.8" font-family="Times,serif" font-size="14.00">date</text>
</a>
</g>
</g>
<!-- library.domain.model.loan&#45;&gt;library.domain.type.date -->
<g id="edge1" class="edge">
<title>library.domain.model.loan&#45;&gt;library.domain.type.date</title>
<path fill="none" stroke="black" d="M422.99,-212.92C430.65,-203.04 439.02,-190.16 443,-177 452.02,-147.2 447.21,-111.32 441.78,-87.01"/>
<polygon fill="black" stroke="black" points="445.12,-85.93 439.37,-77.03 438.31,-87.58 445.12,-85.93"/>
</g>
<!-- library.domain.model.material -->
<g id="node5" class="node">
<title>library.domain.model.material</title>
<g id="a_node5"><a xlink:href="./domain.html#library.domain.model.material" xlink:title="所蔵品目と所蔵品\nmaterial">
<polygon fill="#eedd82" stroke="black" points="261.5,-177 130.5,-177 130.5,-139 261.5,-139 261.5,-177"/>
<text text-anchor="middle" x="196" y="-161.8" font-family="Times,serif" font-size="14.00">所蔵品目と所蔵品</text>
<text text-anchor="middle" x="196" y="-146.8" font-family="Times,serif" font-size="14.00">material</text>
</a>
</g>
</g>
<!-- library.domain.model.loan&#45;&gt;library.domain.model.material -->
<g id="edge3" class="edge">
<title>library.domain.model.loan&#45;&gt;library.domain.model.material</title>
<path fill="none" stroke="black" d="M379.85,-221.73C349.35,-211.33 298.83,-194.09 258.46,-180.31"/>
<polygon fill="black" stroke="black" points="259.56,-176.99 248.96,-177.07 257.3,-183.61 259.56,-176.99"/>
</g>
<!-- library.domain.model.member -->
<g id="node7" class="node">
<title>library.domain.model.member</title>
<g id="a_node7"><a xlink:href="./domain.html#library.domain.model.member" xlink:title="会員\nmember">
<polygon fill="#eedd82" stroke="black" points="360,-177 284,-177 284,-139 360,-139 360,-177"/>
<text text-anchor="middle" x="322" y="-161.8" font-family="Times,serif" font-size="14.00">会員</text>
<text text-anchor="middle" x="322" y="-146.8" font-family="Times,serif" font-size="14.00">member</text>
</a>
</g>
</g>
<!-- library.domain.model.loan&#45;&gt;library.domain.model.member -->
<g id="edge5" class="edge">
<title>library.domain.model.loan&#45;&gt;library.domain.model.member</title>
<path fill="none" stroke="black" d="M385.55,-212.83C375.18,-204.05 362.58,-193.37 351.34,-183.85"/>
<polygon fill="black" stroke="black" points="353.33,-180.96 343.44,-177.16 348.81,-186.3 353.33,-180.96"/>
</g>
<!-- library.domain.model.delay -->
<g id="node9" class="node">
<title>library.domain.model.delay</title>
<g id="a_node9"><a xlink:href="./domain.html#library.domain.model.delay" xlink:title="遅延\ndelay">
<polygon fill="#eedd82" stroke="black" points="433.5,-177 378.5,-177 378.5,-139 433.5,-139 433.5,-177"/>
<text text-anchor="middle" x="406" y="-161.8" font-family="Times,serif" font-size="14.00">遅延</text>
<text text-anchor="middle" x="406" y="-146.8" font-family="Times,serif" font-size="14.00">delay</text>
</a>
</g>
</g>
<!-- library.domain.model.loan&#45;&gt;library.domain.model.delay -->
<g id="edge8" class="edge">
<title>library.domain.model.loan&#45;&gt;library.domain.model.delay</title>
<path fill="none" stroke="black" d="M406.75,-212.83C406.64,-205.13 406.51,-195.97 406.39,-187.42"/>
<polygon fill="black" stroke="black" points="409.89,-187.36 406.26,-177.41 402.9,-187.46 409.89,-187.36"/>
</g>
<!-- library.domain.model.reservation -->
<g id="node4" class="node">
<title>library.domain.model.reservation</title>
<g id="a_node4"><a xlink:href="./domain.html#library.domain.model.reservation" xlink:title="予約\nreservation">
<polygon fill="#eedd82" stroke="black" points="342,-251 244,-251 244,-213 342,-213 342,-251"/>
<text text-anchor="middle" x="293" y="-235.8" font-family="Times,serif" font-size="14.00">予約</text>
<text text-anchor="middle" x="293" y="-220.8" font-family="Times,serif" font-size="14.00">reservation</text>
</a>
</g>
</g>
<!-- library.domain.model.reservation&#45;&gt;library.domain.model.material -->
<g id="edge2" class="edge">
<title>library.domain.model.reservation&#45;&gt;library.domain.model.material</title>
<path fill="none" stroke="black" d="M268.52,-212.83C256.46,-203.88 241.75,-192.96 228.73,-183.3"/>
<polygon fill="black" stroke="black" points="230.59,-180.31 220.47,-177.16 226.41,-185.93 230.59,-180.31"/>
</g>
<!-- library.domain.model.reservation&#45;&gt;library.domain.model.member -->
<g id="edge11" class="edge">
<title>library.domain.model.reservation&#45;&gt;library.domain.model.member</title>
<path fill="none" stroke="black" d="M300.32,-212.83C303.49,-204.96 307.27,-195.57 310.78,-186.85"/>
<polygon fill="black" stroke="black" points="314.09,-188 314.58,-177.41 307.6,-185.38 314.09,-188"/>
</g>
<!-- library.domain.model.retention -->
<g id="node6" class="node">
<title>library.domain.model.retention</title>
<g id="a_node6"><a xlink:href="./domain.html#library.domain.model.retention" xlink:title="取置\nretention">
<polygon fill="#eedd82" stroke="black" points="368.5,-325 285.5,-325 285.5,-287 368.5,-287 368.5,-325"/>
<text text-anchor="middle" x="327" y="-309.8" font-family="Times,serif" font-size="14.00">取置</text>
<text text-anchor="middle" x="327" y="-294.8" font-family="Times,serif" font-size="14.00">retention</text>
</a>
</g>
</g>
<!-- library.domain.model.retention&#45;&gt;library.domain.model.loan -->
<g id="edge4" class="edge">
<title>library.domain.model.retention&#45;&gt;library.domain.model.loan</title>
<path fill="none" stroke="black" d="M347.19,-286.83C356.85,-278.13 368.58,-267.58 379.08,-258.13"/>
<polygon fill="black" stroke="black" points="381.73,-260.45 386.82,-251.16 377.04,-255.25 381.73,-260.45"/>
</g>
<!-- library.domain.model.retention&#45;&gt;library.domain.model.reservation -->
<g id="edge12" class="edge">
<title>library.domain.model.retention&#45;&gt;library.domain.model.reservation</title>
<path fill="none" stroke="black" d="M318.42,-286.83C314.66,-278.88 310.17,-269.37 306.02,-260.57"/>
<polygon fill="black" stroke="black" points="309.13,-258.96 301.7,-251.41 302.8,-261.95 309.13,-258.96"/>
</g>
<!-- library.domain.model.retention&#45;&gt;library.domain.model.material -->
<g id="edge9" class="edge">
<title>library.domain.model.retention&#45;&gt;library.domain.model.material</title>
<path fill="none" stroke="black" d="M285.24,-299.05C234.9,-290.91 154.83,-274.6 137,-251 126.82,-237.52 130.19,-228.46 137,-213 141.98,-201.68 150.64,-191.7 159.81,-183.5"/>
<polygon fill="black" stroke="black" points="162.13,-186.13 167.57,-177.04 157.64,-180.75 162.13,-186.13"/>
</g>
<!-- library.domain.model.retention&#45;&gt;library.domain.model.member -->
<g id="edge6" class="edge">
<title>library.domain.model.retention&#45;&gt;library.domain.model.member</title>
<path fill="none" stroke="black" d="M337.46,-286.66C342.65,-276.5 348.36,-263.44 351,-251 354.51,-234.48 355.12,-229.38 351,-213 348.66,-203.7 344.38,-194.26 339.81,-185.93"/>
<polygon fill="black" stroke="black" points="342.69,-183.92 334.61,-177.06 336.65,-187.46 342.69,-183.92"/>
</g>
<!-- library.domain.model.returned -->
<g id="node8" class="node">
<title>library.domain.model.returned</title>
<g id="a_node8"><a xlink:href="./domain.html#library.domain.model.returned" xlink:title="返却\nreturned">
<polygon fill="#eedd82" stroke="black" points="226,-251 146,-251 146,-213 226,-213 226,-251"/>
<text text-anchor="middle" x="186" y="-235.8" font-family="Times,serif" font-size="14.00">返却</text>
<text text-anchor="middle" x="186" y="-220.8" font-family="Times,serif" font-size="14.00">returned</text>
</a>
</g>
</g>
<!-- library.domain.model.returned&#45;&gt;library.domain.model.material -->
<g id="edge7" class="edge">
<title>library.domain.model.returned&#45;&gt;library.domain.model.material</title>
<path fill="none" stroke="black" d="M188.52,-212.83C189.59,-205.13 190.86,-195.97 192.05,-187.42"/>
<polygon fill="black" stroke="black" points="195.53,-187.8 193.44,-177.41 188.6,-186.84 195.53,-187.8"/>
</g>
<!-- library.domain.model.delay&#45;&gt;library.domain.type.date -->
<g id="edge10" class="edge">
<title>library.domain.model.delay&#45;&gt;library.domain.type.date</title>
<path fill="none" stroke="black" d="M411.27,-138.57C415.44,-123.97 421.33,-103.34 426.07,-86.74"/>
<polygon fill="black" stroke="black" points="429.47,-87.6 428.85,-77.02 422.74,-85.67 429.47,-87.6"/>
</g>
</g>
</svg>
