<?xml version="1.0" encoding="UTF-8" standalone="no"?>
<!DOCTYPE svg PUBLIC "-//W3C//DTD SVG 1.1//EN"
 "http://www.w3.org/Graphics/SVG/1.1/DTD/svg11.dtd">
<!-- Generated by graphviz version 2.43.0 (0)
 -->
<!-- Title: PackageRelationDiagram Pages: 1 -->
<svg width="939pt" height="479pt"
 viewBox="0.00 0.00 939.43 479.00" xmlns="http://www.w3.org/2000/svg" xmlns:xlink="http://www.w3.org/1999/xlink">
<g id="graph0" class="graph" transform="scale(1 1) rotate(0) translate(4 475)">
<title>PackageRelationDiagram</title>
<polygon fill="white" stroke="transparent" points="-4,4 -4,-475 935.43,-475 935.43,4 -4,4"/>
<text text-anchor="middle" x="465.71" y="-7.8" font-family="Times,serif" font-size="14.00">PackageRelationDiagram</text>
<g id="clust1" class="cluster">
<title>cluster_library.domain.model.material</title>
<polygon fill="lemonchiffon" stroke="#eedd82" stroke-width="2" points="521.37,-31 521.37,-197 689.37,-197 689.37,-31 521.37,-31"/>
<text text-anchor="middle" x="605.37" y="-181.8" font-family="Times,serif" font-size="14.00">所蔵品目と所蔵品</text>
<text text-anchor="middle" x="605.37" y="-166.8" font-family="Times,serif" font-size="14.00">material</text>
</g>
<g id="clust2" class="cluster">
<title>cluster_library.domain.model.reservation</title>
<polygon fill="lemonchiffon" stroke="#eedd82" stroke-width="2" points="43.37,-105 43.37,-289 329.37,-289 329.37,-105 43.37,-105"/>
<text text-anchor="middle" x="186.37" y="-273.8" font-family="Times,serif" font-size="14.00">予約</text>
<text text-anchor="middle" x="186.37" y="-258.8" font-family="Times,serif" font-size="14.00">reservation</text>
</g>
<g id="clust3" class="cluster">
<title>cluster_library.domain.model.loan</title>
<polygon fill="lemonchiffon" stroke="#eedd82" stroke-width="2" points="767.37,-297 767.37,-463 871.37,-463 871.37,-297 767.37,-297"/>
<text text-anchor="middle" x="819.37" y="-447.8" font-family="Times,serif" font-size="14.00">貸出</text>
<text text-anchor="middle" x="819.37" y="-432.8" font-family="Times,serif" font-size="14.00">loan</text>
</g>
<!-- summary -->
<g id="node1" class="node">
<title>summary</title>
<polygon fill="none" stroke="black" points="751.37,-417 647.37,-417 647.37,-379 757.37,-379 757.37,-411 751.37,-417"/>
<polyline fill="none" stroke="black" points="751.37,-417 751.37,-411 "/>
<polyline fill="none" stroke="black" points="757.37,-411 751.37,-411 "/>
<text text-anchor="start" x="655.37" y="-401.8" font-family="Times,serif" font-size="14.00">Packages: 16</text>
<text text-anchor="start" x="655.37" y="-386.8" font-family="Times,serif" font-size="14.00">Relations: 35</text>
</g>
<!-- library.domain.model.loan -->
<g id="node2" class="node">
<title>library.domain.model.loan</title>
<g id="a_node2"><a xlink:href="./domain.html#library.domain.model.loan" xlink:title="貸出\nloan">
<polygon fill="#eedd82" stroke="black" points="583.37,-243 529.37,-243 529.37,-205 583.37,-205 583.37,-243"/>
<text text-anchor="middle" x="556.37" y="-227.8" font-family="Times,serif" font-size="14.00">貸出</text>
<text text-anchor="middle" x="556.37" y="-212.8" font-family="Times,serif" font-size="14.00">loan</text>
</a>
</g>
</g>
<!-- library.domain.model.material.item -->
<g id="node3" class="node">
<title>library.domain.model.material.item</title>
<g id="a_node3"><a xlink:href="./domain.html#library.domain.model.material.item" xlink:title="所蔵品\nitem">
<polygon fill="#eedd82" stroke="black" points="680.87,-151 621.87,-151 621.87,-113 680.87,-113 680.87,-151"/>
<text text-anchor="middle" x="651.37" y="-135.8" font-family="Times,serif" font-size="14.00">所蔵品</text>
<text text-anchor="middle" x="651.37" y="-120.8" font-family="Times,serif" font-size="14.00">item</text>
</a>
</g>
</g>
<!-- library.domain.model.loan&#45;&gt;library.domain.model.material.item -->
<g id="edge1" class="edge">
<title>library.domain.model.loan&#45;&gt;library.domain.model.material.item</title>
<path fill="none" stroke="black" d="M583.39,-211.3C596.46,-205.48 609.87,-199.23 612.37,-197 623.66,-186.92 632.74,-172.78 639.29,-160.36"/>
<polygon fill="black" stroke="black" points="642.48,-161.8 643.8,-151.28 636.21,-158.68 642.48,-161.8"/>
</g>
<!-- library.domain.model.material.entry -->
<g id="node5" class="node">
<title>library.domain.model.material.entry</title>
<g id="a_node5"><a xlink:href="./domain.html#library.domain.model.material.entry" xlink:title="所蔵品目\nentry">
<polygon fill="#eedd82" stroke="black" points="603.37,-77 529.37,-77 529.37,-39 603.37,-39 603.37,-77"/>
<text text-anchor="middle" x="566.37" y="-61.8" font-family="Times,serif" font-size="14.00">所蔵品目</text>
<text text-anchor="middle" x="566.37" y="-46.8" font-family="Times,serif" font-size="14.00">entry</text>
</a>
</g>
</g>
<!-- library.domain.model.loan&#45;&gt;library.domain.model.material.entry -->
<g id="edge18" class="edge">
<title>library.domain.model.loan&#45;&gt;library.domain.model.material.entry</title>
<path fill="none" stroke="black" d="M583.63,-215.64C597.54,-212.07 614.77,-207.93 630.37,-205 643.59,-202.52 681.5,-207.12 690.37,-197 717.3,-166.24 713.72,-138.57 690.37,-105 673.16,-80.26 641.01,-68.8 613.75,-63.5"/>
<polygon fill="black" stroke="black" points="614.04,-60 603.59,-61.76 612.86,-66.9 614.04,-60"/>
</g>
<!-- library.domain.model.member -->
<g id="node8" class="node">
<title>library.domain.model.member</title>
<g id="a_node8"><a xlink:href="./domain.html#library.domain.model.member" xlink:title="会員\nmember">
<polygon fill="#eedd82" stroke="black" points="119.37,-77 43.37,-77 43.37,-39 119.37,-39 119.37,-77"/>
<text text-anchor="middle" x="81.37" y="-61.8" font-family="Times,serif" font-size="14.00">会員</text>
<text text-anchor="middle" x="81.37" y="-46.8" font-family="Times,serif" font-size="14.00">member</text>
</a>
</g>
</g>
<!-- library.domain.model.loan&#45;&gt;library.domain.model.member -->
<g id="edge4" class="edge">
<title>library.domain.model.loan&#45;&gt;library.domain.model.member</title>
<path fill="none" stroke="black" d="M529.11,-206.43C525.01,-203.49 520.96,-200.31 517.37,-197 478.96,-161.65 489.84,-130.62 444.37,-105 391.51,-75.23 215.48,-64.27 129.48,-60.63"/>
<polygon fill="black" stroke="black" points="129.59,-57.13 119.46,-60.22 129.31,-64.13 129.59,-57.13"/>
</g>
<!-- library.domain.model.material.item&#45;&gt;library.domain.model.material.entry -->
<g id="edge30" class="edge">
<title>library.domain.model.material.item&#45;&gt;library.domain.model.material.entry</title>
<path fill="none" stroke="black" d="M629.92,-112.83C619.55,-104.05 606.94,-93.37 595.7,-83.85"/>
<polygon fill="black" stroke="black" points="597.7,-80.96 587.81,-77.16 593.18,-86.3 597.7,-80.96"/>
</g>
<!-- library.domain.model.reservation.request -->
<g id="node4" class="node">
<title>library.domain.model.reservation.request</title>
<g id="a_node4"><a xlink:href="./domain.html#library.domain.model.reservation.request" xlink:title="依頼\nrequest">
<polygon fill="#eedd82" stroke="black" points="122.87,-243 51.87,-243 51.87,-205 122.87,-205 122.87,-243"/>
<text text-anchor="middle" x="87.37" y="-227.8" font-family="Times,serif" font-size="14.00">依頼</text>
<text text-anchor="middle" x="87.37" y="-212.8" font-family="Times,serif" font-size="14.00">request</text>
</a>
</g>
</g>
<!-- library.domain.model.reservation.request&#45;&gt;library.domain.model.material.entry -->
<g id="edge2" class="edge">
<title>library.domain.model.reservation.request&#45;&gt;library.domain.model.material.entry</title>
<path fill="none" stroke="black" d="M122.9,-207.61C126.06,-206.6 129.25,-205.71 132.37,-205 145.4,-202.04 241.7,-205.05 252.37,-197 287.04,-170.83 251.98,-132.8 285.37,-105 320.05,-76.12 448.25,-65.03 518.89,-61.05"/>
<polygon fill="black" stroke="black" points="519.5,-64.52 529.3,-60.49 519.12,-57.53 519.5,-64.52"/>
</g>
<!-- library.domain.model.reservation.request&#45;&gt;library.domain.model.member -->
<g id="edge25" class="edge">
<title>library.domain.model.reservation.request&#45;&gt;library.domain.model.member</title>
<path fill="none" stroke="black" d="M71.14,-204.82C69.6,-202.33 68.28,-199.7 67.37,-197 54.93,-160.45 63.56,-115.56 71.75,-87.11"/>
<polygon fill="black" stroke="black" points="75.14,-88 74.71,-77.42 68.44,-85.96 75.14,-88"/>
</g>
<!-- library.domain.model.loan.rule -->
<g id="node6" class="node">
<title>library.domain.model.loan.rule</title>
<g id="a_node6"><a xlink:href="./domain.html#library.domain.model.loan.rule" xlink:title="貸出ルール\nrule">
<polygon fill="#eedd82" stroke="black" points="863.37,-417 775.37,-417 775.37,-379 863.37,-379 863.37,-417"/>
<text text-anchor="middle" x="819.37" y="-401.8" font-family="Times,serif" font-size="14.00">貸出ルール</text>
<text text-anchor="middle" x="819.37" y="-386.8" font-family="Times,serif" font-size="14.00">rule</text>
</a>
</g>
</g>
<!-- library.domain.model.loan.rule&#45;&gt;library.domain.model.loan -->
<g id="edge8" class="edge">
<title>library.domain.model.loan.rule&#45;&gt;library.domain.model.loan</title>
<path fill="none" stroke="black" d="M775.24,-381.58C772.25,-380.67 769.27,-379.8 766.37,-379 692.32,-358.62 654.94,-393.82 597.37,-343 571.53,-320.19 561.97,-280.24 558.44,-253.21"/>
<polygon fill="black" stroke="black" points="561.91,-252.75 557.32,-243.19 554.95,-253.52 561.91,-252.75"/>
</g>
<!-- library.domain.model.loan.rule&#45;&gt;library.domain.model.material.item -->
<g id="edge11" class="edge">
<title>library.domain.model.loan.rule&#45;&gt;library.domain.model.material.item</title>
<path fill="none" stroke="black" d="M776.94,-378.83C726.39,-356.2 646.68,-317.11 630.37,-289 607.12,-248.94 623.85,-193.56 637.82,-160.69"/>
<polygon fill="black" stroke="black" points="641.15,-161.82 642.02,-151.26 634.76,-158.97 641.15,-161.82"/>
</g>
<!-- library.domain.model.loan.rule&#45;&gt;library.domain.model.material.entry -->
<g id="edge9" class="edge">
<title>library.domain.model.loan.rule&#45;&gt;library.domain.model.material.entry</title>
<path fill="none" stroke="black" d="M812.25,-378.7C808.39,-368.33 803.74,-355.06 800.37,-343 771.25,-238.91 825.33,-182.86 750.37,-105 731.7,-85.61 661.82,-72.22 613.76,-65.08"/>
<polygon fill="black" stroke="black" points="613.96,-61.57 603.56,-63.61 612.96,-68.5 613.96,-61.57"/>
</g>
<!-- library.domain.model.loan.due -->
<g id="node7" class="node">
<title>library.domain.model.loan.due</title>
<g id="a_node7"><a xlink:href="./domain.html#library.domain.model.loan.due" xlink:title="期限\ndue">
<polygon fill="#eedd82" stroke="black" points="863.37,-343 809.37,-343 809.37,-305 863.37,-305 863.37,-343"/>
<text text-anchor="middle" x="836.37" y="-327.8" font-family="Times,serif" font-size="14.00">期限</text>
<text text-anchor="middle" x="836.37" y="-312.8" font-family="Times,serif" font-size="14.00">due</text>
</a>
</g>
</g>
<!-- library.domain.model.loan.rule&#45;&gt;library.domain.model.loan.due -->
<g id="edge3" class="edge">
<title>library.domain.model.loan.rule&#45;&gt;library.domain.model.loan.due</title>
<path fill="none" stroke="black" d="M823.66,-378.83C825.47,-371.13 827.64,-361.97 829.66,-353.42"/>
<polygon fill="black" stroke="black" points="833.13,-353.95 832.02,-343.41 826.31,-352.34 833.13,-353.95"/>
</g>
<!-- library.domain.model.loan.rule&#45;&gt;library.domain.model.member -->
<g id="edge32" class="edge">
<title>library.domain.model.loan.rule&#45;&gt;library.domain.model.member</title>
<path fill="none" stroke="black" d="M775.32,-381.26C772.31,-380.42 769.31,-379.66 766.37,-379 628.87,-348.17 591.32,-359.43 451.37,-343 252.18,-319.61 136.42,-439.06 3.37,-289 -2.96,-281.87 1.25,-112.14 5.37,-105 12.06,-93.4 22.96,-84.37 34.44,-77.51"/>
<polygon fill="black" stroke="black" points="36.18,-80.55 43.28,-72.68 32.82,-74.41 36.18,-80.55"/>
</g>
<!-- library.domain.model.delay -->
<g id="node10" class="node">
<title>library.domain.model.delay</title>
<g id="a_node10"><a xlink:href="./domain.html#library.domain.model.delay" xlink:title="遅延\ndelay">
<polygon fill="#eedd82" stroke="black" points="914.87,-243 859.87,-243 859.87,-205 914.87,-205 914.87,-243"/>
<text text-anchor="middle" x="887.37" y="-227.8" font-family="Times,serif" font-size="14.00">遅延</text>
<text text-anchor="middle" x="887.37" y="-212.8" font-family="Times,serif" font-size="14.00">delay</text>
</a>
</g>
</g>
<!-- library.domain.model.loan.rule&#45;&gt;library.domain.model.delay -->
<g id="edge22" class="edge">
<title>library.domain.model.loan.rule&#45;&gt;library.domain.model.delay</title>
<path fill="none" stroke="black" d="M843.35,-378.76C854.02,-369.3 865.66,-356.83 872.37,-343 886.09,-314.67 888.79,-278.24 888.73,-253.4"/>
<polygon fill="black" stroke="black" points="892.22,-253.13 888.54,-243.2 885.22,-253.26 892.22,-253.13"/>
</g>
<!-- library.domain.type.date -->
<g id="node16" class="node">
<title>library.domain.type.date</title>
<g id="a_node16"><a xlink:href="./domain.html#library.domain.type.date" xlink:title="日付\ndate">
<polygon fill="#eedd82" stroke="black" points="914.37,-151 860.37,-151 860.37,-113 914.37,-113 914.37,-151"/>
<text text-anchor="middle" x="887.37" y="-135.8" font-family="Times,serif" font-size="14.00">日付</text>
<text text-anchor="middle" x="887.37" y="-120.8" font-family="Times,serif" font-size="14.00">date</text>
</a>
</g>
</g>
<!-- library.domain.model.loan.rule&#45;&gt;library.domain.type.date -->
<g id="edge29" class="edge">
<title>library.domain.model.loan.rule&#45;&gt;library.domain.type.date</title>
<path fill="none" stroke="black" d="M849.27,-378.88C863.42,-369.36 879.9,-356.81 892.37,-343 911.06,-322.29 916.99,-315.91 924.37,-289 934.23,-252.99 933.14,-241.29 924.37,-205 920.56,-189.28 912.7,-173.15 905.2,-160.15"/>
<polygon fill="black" stroke="black" points="908.02,-158.04 899.87,-151.28 902.03,-161.66 908.02,-158.04"/>
</g>
<!-- library.domain.model.loan.due&#45;&gt;library.domain.model.loan -->
<g id="edge14" class="edge">
<title>library.domain.model.loan.due&#45;&gt;library.domain.model.loan</title>
<path fill="none" stroke="black" d="M809.32,-323.13C768.59,-322.34 689.94,-316.92 630.37,-289 610.9,-279.88 592.6,-264.13 579.06,-250.54"/>
<polygon fill="black" stroke="black" points="581.51,-248.04 572.05,-243.27 576.47,-252.9 581.51,-248.04"/>
</g>
<!-- library.domain.model.loan.due&#45;&gt;library.domain.model.delay -->
<g id="edge6" class="edge">
<title>library.domain.model.loan.due&#45;&gt;library.domain.model.delay</title>
<path fill="none" stroke="black" d="M845.96,-304.57C853.63,-289.83 864.5,-268.95 873.17,-252.27"/>
<polygon fill="black" stroke="black" points="876.48,-253.51 877.99,-243.02 870.27,-250.27 876.48,-253.51"/>
</g>
<!-- library.domain.model.loan.due&#45;&gt;library.domain.type.date -->
<g id="edge26" class="edge">
<title>library.domain.model.loan.due&#45;&gt;library.domain.type.date</title>
<path fill="none" stroke="black" d="M836.8,-304.61C837.78,-281.05 840.98,-239.18 851.37,-205 856.07,-189.51 863.9,-173.29 871.05,-160.17"/>
<polygon fill="black" stroke="black" points="874.23,-161.66 876.08,-151.23 868.13,-158.23 874.23,-161.66"/>
</g>
<!-- library.domain.model.reservation.wait -->
<g id="node9" class="node">
<title>library.domain.model.reservation.wait</title>
<g id="a_node9"><a xlink:href="./domain.html#library.domain.model.reservation.wait" xlink:title="待ち順番\nwait">
<polygon fill="#eedd82" stroke="black" points="321.37,-243 247.37,-243 247.37,-205 321.37,-205 321.37,-243"/>
<text text-anchor="middle" x="284.37" y="-227.8" font-family="Times,serif" font-size="14.00">待ち順番</text>
<text text-anchor="middle" x="284.37" y="-212.8" font-family="Times,serif" font-size="14.00">wait</text>
</a>
</g>
</g>
<!-- library.domain.model.reservation.wait&#45;&gt;library.domain.model.material.entry -->
<g id="edge23" class="edge">
<title>library.domain.model.reservation.wait&#45;&gt;library.domain.model.material.entry</title>
<path fill="none" stroke="black" d="M321.54,-220C362.1,-216.19 423.98,-208.69 444.37,-197 490.37,-170.61 484.69,-144.24 520.37,-105 526.48,-98.27 533.3,-91.23 539.77,-84.73"/>
<polygon fill="black" stroke="black" points="542.52,-86.94 547.15,-77.41 537.59,-81.97 542.52,-86.94"/>
</g>
<!-- library.domain.model.reservation.wait&#45;&gt;library.domain.model.member -->
<g id="edge5" class="edge">
<title>library.domain.model.reservation.wait&#45;&gt;library.domain.model.member</title>
<path fill="none" stroke="black" d="M247.25,-207.42C244.28,-206.5 241.29,-205.67 238.37,-205 216.64,-200 156.07,-210.55 138.37,-197 103.87,-170.6 122.79,-144.79 105.37,-105 102.66,-98.83 99.49,-92.33 96.35,-86.23"/>
<polygon fill="black" stroke="black" points="99.29,-84.29 91.53,-77.08 93.09,-87.55 99.29,-84.29"/>
</g>
<!-- library.domain.model.material.instock -->
<g id="node11" class="node">
<title>library.domain.model.material.instock</title>
<g id="a_node11"><a xlink:href="./domain.html#library.domain.model.material.instock" xlink:title="在庫有無\ninstock">
<polygon fill="#eedd82" stroke="black" points="603.37,-151 529.37,-151 529.37,-113 603.37,-113 603.37,-151"/>
<text text-anchor="middle" x="566.37" y="-135.8" font-family="Times,serif" font-size="14.00">在庫有無</text>
<text text-anchor="middle" x="566.37" y="-120.8" font-family="Times,serif" font-size="14.00">instock</text>
</a>
</g>
</g>
<!-- library.domain.model.reservation.wait&#45;&gt;library.domain.model.material.instock -->
<g id="edge16" class="edge">
<title>library.domain.model.reservation.wait&#45;&gt;library.domain.model.material.instock</title>
<path fill="none" stroke="black" d="M321.63,-223.27C361.52,-222.37 426,-217.44 477.37,-197 500.31,-187.87 522.86,-171.55 539.53,-157.68"/>
<polygon fill="black" stroke="black" points="541.88,-160.27 547.21,-151.11 537.33,-154.95 541.88,-160.27"/>
</g>
<!-- library.domain.model.reservation -->
<g id="node13" class="node">
<title>library.domain.model.reservation</title>
<g id="a_node13"><a xlink:href="./domain.html#library.domain.model.reservation" xlink:title="予約\nreservation">
<polygon fill="#eedd82" stroke="black" points="435.37,-151 337.37,-151 337.37,-113 435.37,-113 435.37,-151"/>
<text text-anchor="middle" x="386.37" y="-135.8" font-family="Times,serif" font-size="14.00">予約</text>
<text text-anchor="middle" x="386.37" y="-120.8" font-family="Times,serif" font-size="14.00">reservation</text>
</a>
</g>
</g>
<!-- library.domain.model.reservation.wait&#45;&gt;library.domain.model.reservation -->
<g id="edge34" class="edge">
<title>library.domain.model.reservation.wait&#45;&gt;library.domain.model.reservation</title>
<path fill="none" stroke="black" d="M321.49,-205.34C325.65,-202.77 329.71,-199.98 333.37,-197 346.54,-186.27 358.82,-171.86 368.23,-159.43"/>
<polygon fill="black" stroke="black" points="371.17,-161.34 374.26,-151.21 365.52,-157.2 371.17,-161.34"/>
</g>
<!-- library.domain.model.reservation.availability -->
<g id="node15" class="node">
<title>library.domain.model.reservation.availability</title>
<g id="a_node15"><a xlink:href="./domain.html#library.domain.model.reservation.availability" xlink:title="予約可否\navailability">
<polygon fill="#eedd82" stroke="black" points="242.87,-151 147.87,-151 147.87,-113 242.87,-113 242.87,-151"/>
<text text-anchor="middle" x="195.37" y="-135.8" font-family="Times,serif" font-size="14.00">予約可否</text>
<text text-anchor="middle" x="195.37" y="-120.8" font-family="Times,serif" font-size="14.00">availability</text>
</a>
</g>
</g>
<!-- library.domain.model.reservation.wait&#45;&gt;library.domain.model.reservation.availability -->
<g id="edge33" class="edge">
<title>library.domain.model.reservation.wait&#45;&gt;library.domain.model.reservation.availability</title>
<path fill="none" stroke="black" d="M266.36,-204.79C253.21,-191.49 235.21,-173.29 220.62,-158.54"/>
<polygon fill="black" stroke="black" points="222.87,-155.84 213.35,-151.19 217.89,-160.76 222.87,-155.84"/>
</g>
<!-- library.domain.model.delay&#45;&gt;library.domain.type.date -->
<g id="edge24" class="edge">
<title>library.domain.model.delay&#45;&gt;library.domain.type.date</title>
<path fill="none" stroke="black" d="M887.37,-204.79C887.37,-192.34 887.37,-175.61 887.37,-161.42"/>
<polygon fill="black" stroke="black" points="890.87,-161.19 887.37,-151.19 883.87,-161.19 890.87,-161.19"/>
</g>
<!-- library.domain.model.material.instock&#45;&gt;library.domain.model.material.entry -->
<g id="edge7" class="edge">
<title>library.domain.model.material.instock&#45;&gt;library.domain.model.material.entry</title>
<path fill="none" stroke="black" d="M566.37,-112.83C566.37,-105.13 566.37,-95.97 566.37,-87.42"/>
<polygon fill="black" stroke="black" points="569.87,-87.41 566.37,-77.41 562.87,-87.41 569.87,-87.41"/>
</g>
<!-- library.domain.model.retention -->
<g id="node12" class="node">
<title>library.domain.model.retention</title>
<g id="a_node12"><a xlink:href="./domain.html#library.domain.model.retention" xlink:title="取置\nretention">
<polygon fill="#eedd82" stroke="black" points="542.87,-343 459.87,-343 459.87,-305 542.87,-305 542.87,-343"/>
<text text-anchor="middle" x="501.37" y="-327.8" font-family="Times,serif" font-size="14.00">取置</text>
<text text-anchor="middle" x="501.37" y="-312.8" font-family="Times,serif" font-size="14.00">retention</text>
</a>
</g>
</g>
<!-- library.domain.model.retention&#45;&gt;library.domain.model.loan -->
<g id="edge12" class="edge">
<title>library.domain.model.retention&#45;&gt;library.domain.model.loan</title>
<path fill="none" stroke="black" d="M511.71,-304.57C520.06,-289.69 531.92,-268.55 541.32,-251.81"/>
<polygon fill="black" stroke="black" points="544.41,-253.45 546.25,-243.02 538.31,-250.03 544.41,-253.45"/>
</g>
<!-- library.domain.model.retention&#45;&gt;library.domain.model.material.item -->
<g id="edge15" class="edge">
<title>library.domain.model.retention&#45;&gt;library.domain.model.material.item</title>
<path fill="none" stroke="black" d="M498.16,-304.7C494.73,-278.44 493.01,-230.43 520.37,-205 535.4,-191.03 594.93,-207.82 612.37,-197 625.8,-188.67 635.27,-173.83 641.51,-160.53"/>
<polygon fill="black" stroke="black" points="644.77,-161.81 645.49,-151.24 638.33,-159.05 644.77,-161.81"/>
</g>
<!-- library.domain.model.retention&#45;&gt;library.domain.model.material.entry -->
<g id="edge20" class="edge">
<title>library.domain.model.retention&#45;&gt;library.domain.model.material.entry</title>
<path fill="none" stroke="black" d="M543.32,-322.97C602.24,-321.94 704.96,-316.17 728.37,-289 781.91,-226.83 766.74,-167.32 713.37,-105 688.8,-76.32 646.61,-65.28 613.71,-61.15"/>
<polygon fill="black" stroke="black" points="613.7,-57.63 603.39,-60.04 612.95,-64.59 613.7,-57.63"/>
</g>
<!-- library.domain.model.retention&#45;&gt;library.domain.model.member -->
<g id="edge19" class="edge">
<title>library.domain.model.retention&#45;&gt;library.domain.model.member</title>
<path fill="none" stroke="black" d="M459.79,-323.09C351.59,-322.89 67.66,-319.45 39.37,-289 -16.3,-229.09 9.79,-181.24 39.37,-105 42.16,-97.79 46.67,-91.02 51.72,-85.01"/>
<polygon fill="black" stroke="black" points="54.62,-87.03 58.83,-77.3 49.48,-82.28 54.62,-87.03"/>
</g>
<!-- library.domain.model.retention&#45;&gt;library.domain.model.reservation -->
<g id="edge10" class="edge">
<title>library.domain.model.retention&#45;&gt;library.domain.model.reservation</title>
<path fill="none" stroke="black" d="M490.34,-304.78C469.99,-271.16 426.44,-199.22 402.67,-159.94"/>
<polygon fill="black" stroke="black" points="405.53,-157.91 397.36,-151.16 399.54,-161.53 405.53,-157.91"/>
</g>
<!-- library.domain.model.reservation&#45;&gt;library.domain.model.material.entry -->
<g id="edge31" class="edge">
<title>library.domain.model.reservation&#45;&gt;library.domain.model.material.entry</title>
<path fill="none" stroke="black" d="M430.05,-112.86C436.52,-110.21 443.11,-107.52 449.37,-105 472.45,-95.7 498.19,-85.56 519.63,-77.17"/>
<polygon fill="black" stroke="black" points="521.11,-80.35 529.15,-73.45 518.57,-73.83 521.11,-80.35"/>
</g>
<!-- library.domain.model.reservation&#45;&gt;library.domain.model.member -->
<g id="edge35" class="edge">
<title>library.domain.model.reservation&#45;&gt;library.domain.model.member</title>
<path fill="none" stroke="black" d="M353.02,-112.92C346.63,-109.95 339.89,-107.15 333.37,-105 264.61,-82.34 181.4,-69.9 129.92,-63.84"/>
<polygon fill="black" stroke="black" points="130.08,-60.34 119.75,-62.68 129.28,-67.29 130.08,-60.34"/>
</g>
<!-- library.domain.model.reservation.rule -->
<g id="node14" class="node">
<title>library.domain.model.reservation.rule</title>
<g id="a_node14"><a xlink:href="./domain.html#library.domain.model.reservation.rule" xlink:title="予約ルール\nrule">
<polygon fill="#eedd82" stroke="black" points="229.37,-243 141.37,-243 141.37,-205 229.37,-205 229.37,-243"/>
<text text-anchor="middle" x="185.37" y="-227.8" font-family="Times,serif" font-size="14.00">予約ルール</text>
<text text-anchor="middle" x="185.37" y="-212.8" font-family="Times,serif" font-size="14.00">rule</text>
</a>
</g>
</g>
<!-- library.domain.model.reservation.rule&#45;&gt;library.domain.model.material.entry -->
<g id="edge27" class="edge">
<title>library.domain.model.reservation.rule&#45;&gt;library.domain.model.material.entry</title>
<path fill="none" stroke="black" d="M229.45,-207.44C232.46,-206.56 235.45,-205.74 238.37,-205 258.91,-199.8 268.51,-209.84 285.37,-197 321.27,-169.65 292.77,-132.75 328.37,-105 357.46,-82.31 458.37,-69.12 519.05,-63.06"/>
<polygon fill="black" stroke="black" points="519.55,-66.53 529.16,-62.08 518.87,-59.57 519.55,-66.53"/>
</g>
<!-- library.domain.model.reservation.rule&#45;&gt;library.domain.model.member -->
<g id="edge13" class="edge">
<title>library.domain.model.reservation.rule&#45;&gt;library.domain.model.member</title>
<path fill="none" stroke="black" d="M141.19,-208.18C137.87,-207.1 134.57,-206.03 131.37,-205 119.85,-201.31 113.36,-206.07 105.37,-197 78.76,-166.8 76.52,-117.98 78.27,-87.23"/>
<polygon fill="black" stroke="black" points="81.76,-87.4 79.02,-77.17 74.78,-86.88 81.76,-87.4"/>
</g>
<!-- library.domain.model.reservation.rule&#45;&gt;library.domain.model.reservation -->
<g id="edge21" class="edge">
<title>library.domain.model.reservation.rule&#45;&gt;library.domain.model.reservation</title>
<path fill="none" stroke="black" d="M229.39,-207.15C232.4,-206.35 235.42,-205.62 238.37,-205 259.1,-200.67 314.59,-206.81 333.37,-197 349.31,-188.67 362.29,-173.27 371.42,-159.67"/>
<polygon fill="black" stroke="black" points="374.47,-161.4 376.85,-151.08 368.55,-157.66 374.47,-161.4"/>
</g>
<!-- library.domain.model.reservation.rule&#45;&gt;library.domain.model.reservation.availability -->
<g id="edge17" class="edge">
<title>library.domain.model.reservation.rule&#45;&gt;library.domain.model.reservation.availability</title>
<path fill="none" stroke="black" d="M187.39,-204.79C188.77,-192.34 190.63,-175.61 192.21,-161.42"/>
<polygon fill="black" stroke="black" points="195.72,-161.51 193.35,-151.19 188.76,-160.74 195.72,-161.51"/>
</g>
<!-- library.domain.model.returned -->
<g id="node17" class="node">
<title>library.domain.model.returned</title>
<g id="a_node17"><a xlink:href="./domain.html#library.domain.model.returned" xlink:title="返却\nreturned">
<polygon fill="#eedd82" stroke="black" points="719.37,-243 639.37,-243 639.37,-205 719.37,-205 719.37,-243"/>
<text text-anchor="middle" x="679.37" y="-227.8" font-family="Times,serif" font-size="14.00">返却</text>
<text text-anchor="middle" x="679.37" y="-212.8" font-family="Times,serif" font-size="14.00">returned</text>
</a>
</g>
</g>
<!-- library.domain.model.returned&#45;&gt;library.domain.model.material.item -->
<g id="edge28" class="edge">
<title>library.domain.model.returned&#45;&gt;library.domain.model.material.item</title>
<path fill="none" stroke="black" d="M673.7,-204.79C669.79,-192.22 664.52,-175.28 660.08,-161"/>
<polygon fill="black" stroke="black" points="663.34,-159.69 657.02,-151.19 656.65,-161.77 663.34,-159.69"/>
</g>
</g>
</svg>
